<svg id="Capa_1" enable-background="new 0 0 512 512" height="512" viewBox="0 0 512 512" width="512" xmlns="http://www.w3.org/2000/svg"><g><path d="m256 264.501c-16.542 0-30 13.458-30 30s13.458 30 30 30 30-13.458 30-30-13.458-30-30-30zm0 45c-8.271 0-15-6.729-15-15s6.729-15 15-15 15 6.729 15 15-6.729 15-15 15z"/><path d="m496 482.001v-150h16v-45h-30v-54.763l-85.976-129.476h-115.551l-16.973-25.769v-31.993h60v-45h-75v76.992l-16.973 25.77h-115.55l-85.977 129.477v54.763h-30v45h16.001v150h15v-150h134.999v164.998h-166v15h512v-15h-166v-164.999h135v150zm-232.5-467.001h45v15h-45zm82.5 272.001v-45h121v45zm41.979-169.238 72.537 109.239h-99.516v-30h-18.459l-52.189-79.239zm-63.399 79.239h-137.16l68.58-104.126zm-200.559-79.239h97.626l-52.189 79.239h-18.458v30h-99.517zm-79.021 124.239h121v45h-121zm-30 74.999v-15h151v15zm256 179.999h-30v-120c0-8.271 6.729-15 15-15s15 6.729 15 15zm15 0v-120c0-16.542-13.458-30-30-30s-30 13.458-30 30v120h-45v-254.998h67.5v-15h-82.5v-15h180v15h-82.5v15h67.5v254.998zm60-194.999h151v15h-151z"/><path d="m128.5 347.001c-12.406 0-22.5 10.094-22.5 22.5v112.5h45v-112.5c0-12.407-10.094-22.5-22.5-22.5zm7.5 120h-15v-97.5c0-4.136 3.364-7.5 7.5-7.5s7.5 3.364 7.5 7.5z"/><path d="m361 369.501v112.5h45v-112.5c0-12.406-10.094-22.5-22.5-22.5s-22.5 10.093-22.5 22.5zm30 0v97.5h-15v-97.5c0-4.136 3.364-7.5 7.5-7.5s7.5 3.364 7.5 7.5z"/><path d="m68.5 347.001c-12.406 0-22.5 10.094-22.5 22.5v112.5h45.001v-112.5c0-12.407-10.094-22.5-22.501-22.5zm7.501 120h-15.001v-97.5c0-4.136 3.364-7.5 7.5-7.5s7.501 3.364 7.501 7.5z"/><path d="m421 369.501v112.5h45v-112.5c0-12.406-10.094-22.5-22.5-22.5s-22.5 10.093-22.5 22.5zm30 0v97.5h-15v-97.5c0-4.136 3.364-7.5 7.5-7.5s7.5 3.364 7.5 7.5z"/><path d="m233.5 167.002h15v15h-15z"/><path d="m263.5 167.002h15v15h-15z"/><path d="m301.001 257.001h15v15h-15z"/><path d="m377.002 162.762h15v-15h-15v-15h-15v15h15z"/></g></svg>