<svg id="Capa_1" enable-background="new 0 0 512 512" height="512" viewBox="0 0 512 512" width="512" xmlns="http://www.w3.org/2000/svg"><g><path d="m64.75 377.002h-14.999v15h224.998v-15h-15v-80.58l-68.318-20.495 15.819-15.819v-78.106c0-12.407-10.094-22.5-22.5-22.5h-67.5v100.606l15.818 15.818-68.318 20.496zm111.398-90 10.255 3.076-24.153 17.637-24.154-17.637 10.255-3.076zm68.601 90h-22.5v-27.772h-15v27.771h-37.499v-56.189l34.682-25.325 40.317 12.095zm-59.999-202.5c4.136 0 7.5 3.364 7.5 7.5v20.851l-30-6-30 6v-28.351zm-52.5 43.649 30-6 30 6v35.745l-18.107 18.107h-23.786l-18.106-18.107v-35.745zm-12.183 77.337 34.683 25.325v56.189h-37.5v-27.772h-15v27.771h-22.5v-69.419z"/><path d="m154.75 467h15v15h-15z"/><path d="m79.75 406.799h75v15h-75z"/><path d="m169.75 406.799h104.995v15h-104.995z"/><path d="m124.75 30h15v15h-15z"/><path d="m49.751 406.799h15v15h-15z"/><path d="m154.75 30h45v15h-45z"/><path d="m492.249 195.001v-142.501c0-12.406-10.093-22.5-22.499-22.5h-165.002v-30h-284.997v60h15v-45h254.997v15h-29.999c-12.406 0-22.5 10.093-22.5 22.5v195c0 12.406 10.094 22.5 22.5 22.5h29.999v167.001h-254.997v-362.001h-15v414.5c0 12.406 10.094 22.5 22.5 22.5h187.498v-15h-187.498c-4.136 0-7.5-3.364-7.5-7.5v-37.5h254.997v37.5c0 4.135-3.364 7.5-7.5 7.5h-37.499v15h37.499c12.406 0 22.5-10.093 22.5-22.5v-219.5h15v55.606l55.606-55.606h94.396c12.406 0 22.499-10.093 22.499-22.5v-37.5h-15v37.5c0 4.135-3.364 7.5-7.499 7.5h-100.608l-34.394 34.394v-34.394h-74.999c-4.136 0-7.5-3.364-7.5-7.5v-195c0-4.135 3.364-7.5 7.5-7.5h210.001c4.135 0 7.499 3.364 7.499 7.5v142.501z"/><path d="m434.712 105.331h-98.444l-19.319 59.288-19.811-22.939-11.352 9.804 37.189 43.06 24.181-74.213h87.556z"/><path d="m372.294 191.841 15.904-15.904 15.909 15.909 10.608-10.606-15.91-15.91 15.905-15.905-10.607-10.606-15.905 15.905-15.909-15.91-10.607 10.606 15.91 15.91-15.905 15.905z"/><path d="m447.25 59.999h15v15h-15z"/><path d="m417.249 59.999h15v15h-15z"/><path d="m259.748 467h15.001v15h-15.001z"/></g></svg>