<svg id="Capa_1" enable-background="new 0 0 512.287 512.287" height="512" viewBox="0 0 512.287 512.287" width="512" xmlns="http://www.w3.org/2000/svg"><g><path d="m383.644 489.787c0 4.136-3.364 7.5-7.5 7.5h-112.5v15h112.5c12.406 0 22.5-10.094 22.5-22.5v-37.5h-15z"/><path d="m128.644 489.787v-136.001h-15v136.001c0 12.406 10.094 22.5 22.5 22.5h112.5v-15h-112.5c-4.136 0-7.5-3.364-7.5-7.5z"/><path d="m263.644 388.037h15v15h-15z"/><path d="m233.644 388.037h15v15h-15z"/><path d="m413.643 233.787h-30v-178.474l-37.5-55.313-37.5 55.313v178.474h-29.999v-130.443c9.102-6.848 15-17.737 15-29.98 0-30.573-22.749-67.5-51-67.5h-8.688l1.27 8.596c2.344 15.871-2.072 22.92-7.185 31.083-4.404 7.031-9.396 15.001-9.396 27.821 0 12.242 5.898 23.131 15 29.98v130.443h-30v-175.422h-15v-37.5h-45v37.5h-15v30h-30v112.499h15v-97.499h14.999v130.423h-29.999v60h14.999v45h15v-45h120v-15h-134.999v-30h284.998v30h-134.999v15h120v143.5h15v-143.5h14.999zm-52.5-153.671c2.629 0 5.153-.458 7.5-1.29v154.961h-15v-153.671zm7.241-20.579c-.852 3.206-3.771 5.579-7.241 5.579h-30c-3.471 0-6.39-2.373-7.241-5.579l22.241-32.806zm-44.741 19.289c2.347.833 4.871 1.29 7.5 1.29h7.5v153.671h-15zm-82.891-25.32c4.563-7.286 10.044-16.035 10.102-30.769 15.174 6.846 27.79 31.141 27.79 50.628 0 12.407-10.094 22.5-22.5 22.5s-22.5-10.093-22.5-22.5c0-8.511 3.136-13.519 7.108-19.859zm15.392 57.359c2.568 0 5.076-.261 7.5-.755v14.465c-4.846 1.713-10.154 1.713-15 0v-14.465c2.424.494 4.932.755 7.5.755zm-7.5 29.235c2.473.503 4.986.761 7.5.761s5.027-.259 7.5-.761v93.687h-15zm-90-104.235h15v22.5h-15zm-15 37.5h45v15h-45zm0 29.999h45v130.423h-45z"/><path d="m353.644 338.787h15v45h-15z"/><path d="m353.644 308.787h15v15h-15z"/></g></svg>