<svg id="Capa_1" enable-background="new 0 0 512 512" height="512" viewBox="0 0 512 512" width="512" xmlns="http://www.w3.org/2000/svg"><g><path d="m263.183 432.939.635 14.986c46.875-1.986 90.634-21.752 123.216-55.655 32.679-34.004 50.676-78.707 50.676-125.875h-15c-.001 89.598-70.073 162.753-159.527 166.544z"/><path d="m74.292 266.396c0 47.168 17.997 91.871 50.675 125.875 32.582 33.902 76.34 53.668 123.215 55.655l.635-14.986c-89.454-3.792-159.526-76.947-159.526-166.544z"/><path d="m0 33.896v45h15v-30h23.503v30h15v-30h14.999v15h15v-15h15v30h15v-30h15v15h15v-15h14.999v30h15v-30h15v15h15v-15h14.999v30h15v-30h15v15h15v-15h15v30h15v-30h15v15h15v-15h14.999v30h15v-30h15v15h15v-15h15v30h15v-30h14.999v15h15v-15h15v30h15v-30h23.502v75h-482v-30h-15v45h512v-105z"/><path d="m233.5 228.896h15v15h-15z"/><path d="m263.5 228.896h15v15h-15z"/><path d="m233.5 93.896h15v15h-15z"/><path d="m263.5 93.896h15v15h-15z"/><path d="m104.292 266.396c0 83.652 68.056 151.709 151.708 151.709s151.708-68.057 151.708-151.709v-7.5h-303.416zm288.213 7.5c-3.907 71.907-63.64 129.208-136.505 129.208s-132.598-57.302-136.505-129.209h273.01z"/><path d="m0 213.896h15v-30h23.503v15h15v-15h15v30h15v-30h15v15h15v-15h15v30h15v-30h15v15h15v-15h15v30h15v-30h15v15h15v-15h15v30h15v-30h15v15h15v-15h15v30h15v-30h15v15h15v-15h15v30h15v-30h15v15h15v-15h15v30h15v-30h15v15h15v-15h23.497v75h-44.292v7.5c0 49.837-18.684 97.384-52.609 133.882l10.986 10.213c34.809-37.448 54.709-85.7 56.492-136.595h44.423v-105h-512z"/><path d="m256 463.104c-108.465 0-196.708-88.243-196.708-196.708v-7.5h-44.291v-30h-15.001l.001 45h44.421c3.96 113.28 97.349 204.208 211.578 204.208 53.643 0 104.816-20.109 144.095-56.623l-10.213-10.986c-36.494 33.925-84.041 52.609-133.882 52.609z"/><path d="m467 93.896h15v15h-15z"/><path d="m407 93.896h45v15h-45z"/><path d="m467 228.896h15v15h-15z"/><path d="m407 228.896h45v15h-45z"/></g></svg>