<svg id="Capa_1" enable-background="new 0 0 512 512" height="512" viewBox="0 0 512 512" width="512" xmlns="http://www.w3.org/2000/svg"><g><path d="m233.446 384.5h15v15h-15z"/><path d="m263.446 384.5h15v15h-15z"/><path d="m474.5 279.5h-46v-157.5c0-37.22-30.28-67.5-67.5-67.5h-45v-24.5c0-12.406-10.093-22.5-22.499-22.5h-75.001c-12.406 0-22.5 10.094-22.5 22.5v24.5h-45c-17.545 0-34.194 6.763-46.881 19.043l10.432 10.777c9.874-9.556 22.818-14.82 36.449-14.82h210c28.948 0 52.5 23.552 52.5 52.5v37.499h-315v-37.499c0-9.702 2.704-19.198 7.819-27.463l-12.754-7.895c-6.585 10.638-10.065 22.865-10.065 35.358v157.5h-46c-20.678 0-37.5 16.822-37.5 37.5v187.5h315.893v-15h-217.393v-315.001h29.999v37.5c0 12.406 10.094 22.5 22.5 22.5s22.5-10.094 22.5-22.5v-37.5h240.001v315.001h-30.108v-181.236c8.73-3.096 15.001-11.433 15.001-21.21v-22.5h-284.893v22.5c0 9.777 6.271 18.114 15 21.21v166.236h15v-164.946h29.999v22.5c0 12.406 10.094 22.5 22.5 22.5s22.5-10.094 22.5-22.5v-22.5h149.893v179.946h-37.499v15h181.107v-187.5c0-20.678-16.822-37.5-37.5-37.5zm-263.5-249.5c0-4.136 3.364-7.5 7.5-7.5h75.001c4.135 0 7.499 3.364 7.499 7.5v24.5h-90zm-173.5 264.5h46v120.001h-68.5v-97.501c0-12.406 10.094-22.5 22.5-22.5zm-22.5 195v-59.999h68.5v59.999zm143.499-277.501c0 4.136-3.364 7.5-7.5 7.5s-7.5-3.364-7.5-7.5v-37.5h15zm-29.999 67.555h254.893v7.5c0 4.136-3.364 7.5-7.5 7.5h-239.893c-4.136 0-7.5-3.364-7.5-7.5zm74.999 52.5c0 4.136-3.364 7.5-7.5 7.5s-7.5-3.364-7.5-7.5v-22.5h15zm271.001-37.554c12.406 0 22.5 10.094 22.5 22.5v97.501h-68.5v-120.001zm-46 195v-59.999h68.5v59.999z"/><path d="m308.393 324.553h15v15.001h-15z"/><path d="m303.251 84.5h15v15h-15z"/><path d="m338.393 324.553h15v15h-15z"/><path d="m383.5 122h15c0-20.678-16.822-37.5-37.5-37.5h-29.999v15h29.999c12.196 0 22.5 10.304 22.5 22.5z"/></g></svg>