<svg id="Capa_1" enable-background="new 0 0 512.021 512.021" height="512" viewBox="0 0 512.021 512.021" width="512" xmlns="http://www.w3.org/2000/svg"><g><path d="m377.06 324.511h30v15h-30z"/><path d="m377.06 399.511h30v15h-30z"/><path d="m512.021 257.012h-16.29c.833-2.347 1.29-4.871 1.29-7.5v-60h-15v-22.501h-15v22.501h-15v-37.5h-15v37.5h-15v60c0 2.629.458 5.153 1.29 7.5h-17.059c-3.484-17.096-18.635-30-36.745-30s-33.261 12.904-36.745 30h-54.252v-37.5h64.792v-219.501h-309.583v60h15v-45h279.583v159.501h-279.583v-99.502h-15v144.502h64.791v37.5h-98.51v45h15v44.999h15v-44.999h14.962v194.999h-14.962v-135h-15v150h44.962v-209.999h38.548v44.999h67.52v44.999h-82.519v44.962h82.519v15h14.98v29.999h-82.5v30h15v-15h67.5v15.04h15v-15.04h67.5v15h15v-30h-82.5v-29.999h14.981v-15h82.519v-44.962h-82.519v-44.999h67.519v-44.999h38.549v149.999h120.001v-15h-105.001v-60h105.001v-15h-105.001v-59.999h120.001v209.999h44.961v-59.999h-15v44.999h-14.961v-194.999h14.961v135h15v-135h15zm-74.999-7.5v-45h45v45c0 4.136-3.364 7.5-7.5 7.5h-30c-4.136 0-7.5-3.365-7.5-7.5zm-67.514-7.5c9.777 0 18.114 6.271 21.21 15h-42.42c3.096-8.73 11.432-15 21.21-15zm-41.206-37.5h-49.792v-7.5c0-2.629-.458-5.153-1.29-7.5h51.082zm-279.583 0v-15h51.081c-.833 2.347-1.29 4.871-1.29 7.5v7.5zm-33.719 82.5v-15h83.51v15zm83.511 134.96v-14.962h67.519v14.962zm82.519 15v-149.96h14.961v149.96zm97.48-29.962v14.962h-67.519v-14.962zm-15-74.999h-52.519v-59.999h-44.961v59.999h-52.52v-134.999c0-4.136 3.364-7.5 7.5-7.5h135c4.136 0 7.5 3.364 7.5 7.5zm233.511-44.999h-218.511v-15h218.511z"/><path d="m196.053 83.512h15v15h-15z"/><path d="m166.053 83.512h15v15h-15z"/><path d="m203.511 204.512h15v15h-15z"/><path d="m298.303 30.011h15v15h-15z"/><path d="m233.511 204.512h15v15h-15z"/><path d="m238.303 30.011h45v15h-45z"/></g></svg>