<svg id="Capa_1" enable-background="new 0 0 512 512" height="512" viewBox="0 0 512 512" width="512" xmlns="http://www.w3.org/2000/svg"><g><path d="m399.852 353.071-84.766-14.108-5.846-37.956h102.759v-145.007c0-41.503-16.271-80.632-45.818-110.179-29.547-29.549-68.677-45.821-110.181-45.821-40.029 0-78.151 15.291-107.343 43.056l10.337 10.869c26.392-25.102 60.842-38.925 97.006-38.925 77.747 0 140.999 63.252 140.999 141v130.007h-77.102l32.103-29.185v-89.162l-6.249-1.057c-20.76-3.512-72.565-22.572-120.045-69.582l-5.486-5.433-57.687 61.74-32.533 23.199v22.232c0 12.406 10.093 22.5 22.5 22.5h7.5v35.563l32.103 29.185h-77.103v-130.007c0-33.568 12.137-66.153 34.174-91.751l-11.367-9.787c-24.38 28.319-37.807 64.38-37.807 101.538v145.007h102.76l-5.846 37.956-84.766 14.108c-36.745 6.115-61.433 31.257-61.433 62.563v96.366h358.068v-15h-22.499v-55.326h-15v55.326h-49.984l49.019-91.039-42.671-49.701 69.739 11.608c22.556 3.754 48.896 18.516 48.896 47.766v81.366h-22.5v15h37.5v-96.366c.001-31.306-24.687-56.447-61.431-62.563zm-203.852 121.802-36.224-66.963 36.224-42.191zm15-70.177c7.778 3.948 16.409 6.05 25.27 6.05h39.459c8.904 0 17.566-2.106 25.362-6.061l.143 92.315h-90.234zm90.001-58.649.063 40.952c-7.226 5.656-16.103 8.747-25.334 8.747h-39.459c-9.189 0-18.044-3.095-25.27-8.758v-40.947l5.79-37.592 13.81 12.555h50.799l13.811-12.555zm-148.501-139.787c-4.136 0-7.5-3.364-7.5-7.5v-14.506l15-10.696v32.702zm22.5-44.303 45.703-48.915c44.46 41.901 91.047 61.169 116.297 67.079v70.066l-61.399 55.816h-39.201l-61.4-55.815zm-109.284 253.677c0-29.25 26.339-44.012 48.896-47.766l69.74-11.608-42.678 49.709 49.242 91.031h-50.201v-55.326h-15v55.326h-60v-81.366zm250.483 59.202-.168-109.081 36.199 42.163z"/><path d="m203.5 188.964h15v15h-15z"/><path d="m293.499 188.964h15.001v15h-15.001z"/><path d="m237.25 245.691h37.5v15h-37.5z"/><path d="m431.284 430.634v-15c0-19.868-19.586-30.178-36.358-32.97l-2.463 14.797c2.438.405 23.821 4.363 23.821 18.173v15z"/><path d="m416.284 445.633h15v15.001h-15z"/><path d="m241 36.787h15v15h-15z"/><path d="m362.626 95.539c-20.951-36.289-63.873-58.752-91.626-58.752v15c23.687 0 60.937 20.594 78.636 51.252z"/></g></svg>