<svg id="Capa_1" enable-background="new 0 0 512.008 512.008" height="512" viewBox="0 0 512.008 512.008" width="512"
     xmlns="http://www.w3.org/2000/svg" fill="#045b6e">
  <g>
    <path
      d="m353.594 0c-53.121 0-102.439 26.435-131.929 70.713l12.484 8.314c26.702-40.091 71.354-64.027 119.445-64.027 79.077 0 143.41 64.333 143.41 143.409s-64.333 143.409-143.41 143.409c-79.076 0-143.409-64.333-143.409-143.409 0-23.392 5.763-46.608 16.666-67.142l-13.248-7.035c-12.049 22.692-18.418 48.342-18.418 74.177 0 30.117 8.45 58.296 23.101 82.295l-26.094 26.078-21.215-21.215-31.819 31.82 10.607 10.607-143.191 143.189c-4.236 4.237-6.569 9.887-6.57 15.909 0 6.023 2.334 11.674 6.57 15.91l42.428 42.428c4.387 4.386 10.147 6.579 15.909 6.578 5.762 0 11.523-2.192 15.91-6.578l68.942-68.942-10.607-10.607-68.942 68.943c-2.923 2.923-7.681 2.923-10.605 0l-42.428-42.428c-1.403-1.403-2.177-3.287-2.177-5.303s.773-3.899 2.177-5.303l143.189-143.189 53.033 53.033-63.64 63.64 10.606 10.606 63.639-63.64 10.607 10.607 31.819-31.819-21.213-21.213 26.089-26.089c23.997 14.646 52.171 23.093 82.282 23.093 87.348 0 158.41-71.063 158.41-158.409s-71.061-158.41-158.408-158.41zm-118.978 351.634-74.246-74.246 10.606-10.607 74.246 74.247zm0-42.426-31.818-31.818 24.063-24.047c9.046 12.045 19.766 22.765 31.812 31.81z"/>
    <path
      d="m423.146 247.993 9.207 11.842c31.554-24.533 49.651-61.502 49.651-101.426 0-70.805-57.605-128.409-128.41-128.409s-128.409 57.604-128.409 128.409 57.604 128.409 128.409 128.409c23.137 0 45.823-6.228 65.608-18.008l-7.674-12.889c-10.741 6.396-22.456 10.929-34.636 13.478 9.809-10.502 18.067-23.381 24.375-38.141.752-1.758 1.464-3.547 2.158-5.35h41.355c-6.087 8.188-13.328 15.627-21.634 22.085zm-7.834-97.083c-.571-15.567-2.911-30.766-6.912-45h45.697c7.142 13.616 11.595 28.851 12.654 45zm-174.873 15h51.437c.571 15.567 2.911 30.765 6.912 44.999h-45.695c-7.141-13.616-11.594-28.85-12.654-44.999zm105.655-113.053v38.053h-26.119c6.577-15.125 15.418-28.123 26.119-38.053zm0 53.053v45h-39.212c.621-15.939 3.216-31.125 7.533-45zm-54.218 45h-51.437c1.059-16.149 5.512-31.384 12.654-45h45.696c-4.002 14.235-6.342 29.433-6.913 45zm15.006 15h39.212v44.999h-31.679c-4.317-13.874-6.912-29.06-7.533-44.999zm39.212 59.999v38.053c-10.701-9.93-19.541-22.927-26.119-38.053zm41.119-134.999h-26.119v-38.053c10.7 9.93 19.541 22.928 26.119 38.053zm-26.119 75h39.212c-.622 15.939-3.216 31.125-7.533 44.999h-31.679zm0-15v-45h31.679c4.317 13.875 6.912 29.061 7.533 45zm83.578-60h-41.248c-.694-1.802-1.406-3.591-2.158-5.35-6.31-14.765-14.572-27.648-24.385-38.152 27.596 5.783 51.535 21.625 67.791 43.502zm-114.366-43.501c-9.813 10.504-18.075 23.387-24.385 38.152-.752 1.758-1.464 3.547-2.158 5.35h-41.247c16.256-21.878 40.195-37.72 67.79-43.502zm-67.789 178.5h41.246c.694 1.802 1.406 3.591 2.158 5.35 6.31 14.765 14.571 27.647 24.384 38.151-27.595-5.783-51.532-21.624-67.788-43.501zm98.577 38.053v-38.053h26.119c-6.578 15.126-15.419 28.123-26.119 38.053zm47.305-53.053c4.001-14.234 6.341-29.432 6.912-44.999h51.441c-1.033 15.937-5.343 31.204-12.55 44.999z"/>
    <path d="m174.084 344.134h14.999v15h-14.999z" transform="matrix(.707 -.707 .707 .707 -195.464 231.408)"/>
    <path d="m127.264 375.954h45v15h-45z" transform="matrix(.707 -.707 .707 .707 -227.263 218.175)"/>
  </g>
</svg>
