<svg id="Capa_1" enable-background="new 0 0 512 512" height="512" viewBox="0 0 512 512" width="512" xmlns="http://www.w3.org/2000/svg"><g><path d="m497 452.249v-322.5h-20.799l-193.154-92.44c-2.336-12.811-13.571-22.558-27.047-22.558s-24.711 9.747-27.047 22.558l-193.154 92.44h-20.799v60h15v-45h452v307.5h-15v-292.5h-422v292.5h-15v-247.5h-15v247.5h-15v45h437.001v-15h-422.001v-15h482v15h-45v15h60v-45zm-241-422.498c6.893 0 12.5 5.607 12.5 12.5 0 6.892-5.607 12.499-12.5 12.499s-12.5-5.607-12.5-12.499c0-6.893 5.607-12.5 12.5-12.5zm-25.271 23.336c4.214 9.79 13.954 16.663 25.271 16.663s21.056-6.873 25.271-16.663l160.186 76.662h-370.914zm-170.729 121.662h392v277.5h-15v-37.501c0-12.406-10.093-22.5-22.499-22.5h-60c-12.406 0-22.5 10.094-22.5 22.5v37.501h-182.001v-60h-15v-15h-15v15h-15v-22.5h-15v22.5h-15v60h-15zm362 262.5v15h-74.999v-15zm-74.999-15v-7.501c0-4.136 3.364-7.5 7.5-7.5h60c4.135 0 7.499 3.364 7.499 7.5v7.501zm-212.001-15v45h-45v-45z"/><path d="m225 219.749h-120v120.001h120zm-25.606 15-52.5 52.5h-26.894v-52.5zm-79.394 67.5h22.5v22.501h-22.5zm37.5 22.501v-26.895l52.5-52.5v79.395z"/><path d="m285 272.25h104.999v15h-104.999z"/><path d="m285 242.25h104.999v15h-104.999z"/><path d="m254.999 272.25h15v15h-15z"/><path d="m254.999 242.25h15v15h-15z"/><path d="m254.999 302.249h15v15h-15z"/><path d="m285 302.249h104.999v15h-104.999z"/><path d="m422 189.749h15v15h-15z"/><path d="m422 219.749h15v45h-15z"/></g></svg>