<svg id="Capa_1" enable-background="new 0 0 512.107 512.107" height="512" viewBox="0 0 512.107 512.107" width="512" xmlns="http://www.w3.org/2000/svg"><g><path d="m421.107 242.803 91-54.677-256.053-121.869-256.054 121.869 91 54.677v111.749l77.506 14.757 2.806-14.734-65.312-12.437v-22.23l150.054 28.573 83.421-15.885c-1.514 2.534-2.865 5.628-3.947 9.411l-4.086 14.3-75.391 14.404-70.004-13.329-2.806 14.734 72.813 13.864 70.771-13.52-6.588 23.057v50.333h74.999v-50.333l-9.613-33.645 35.482-7.436v-111.633zm-15 61.836-40.869 7.782v-86.636c16.102 5.719 29.73 11.752 40.869 17.362zm7.215-74.657c-12.835-6.488-28.882-13.538-48.084-20.075v-75.071l115.191 54.826zm-157.268-147.113 94.185 44.828v77.417c-26.187-7.826-57.383-14.408-93.527-17.588l-.657-.059-.657.059c-72.011 6.335-124.395 26.171-156.611 42.457l-67.107-40.32zm-150.054 221.77v-61.491c30.934-15.58 81.051-34.459 150.054-40.623 36.776 3.285 68.179 10.186 94.185 18.271v94.482l-94.185 17.934zm274.238 126.211h-15l.001-34.282h-15l-.001 34.282h-14.999v-33.231l14.711-51.49c1.813-6.344 4.434-9.561 7.788-9.561 3.356 0 5.977 3.217 7.79 9.561l14.71 51.489zm1.256-83.438-1.544-5.404c-2.161-7.561-5.395-12.38-8.867-15.43l35.024-6.669v22.347z"/><path d="m233.554 230.421h15v15h-15z"/><path d="m263.554 230.421h15v15h-15z"/></g></svg>