<svg id="Capa_1" enable-background="new 0 0 512 512" height="512" viewBox="0 0 512 512" width="512" xmlns="http://www.w3.org/2000/svg"><g><path d="m512 0h-414.5v45h15v67.629c-16.273 1.509-31.904 7.884-44.663 18.342l9.509 11.602c12.036-9.866 27.184-15.299 42.654-15.299 37.219 0 67.499 30.28 67.499 67.499v67.501h-34.393l19.394-19.394v-38.512l-51.283-17.095h-53.717v55.606l23.318 23.318-38.318 11.496v-82.921c0-15.471 5.433-30.618 15.298-42.652l-11.6-9.51c-12.058 14.709-18.698 33.234-18.698 52.162v87.421l-15 4.5v82.808h-22.5v45h15v97.499h209.999v-97.499h15v-45h-37.5v-17.005h219.502v-15h-215.716l88.717-78.902 1.193-50.199 13.343-19.799-12.439-8.383-13.941 20.687-75.813 61.374h-4.845v-67.501c0-42.961-33.012-78.339-74.999-82.143v-67.63h354.499v292.496h-45v15h60v-307.496h15zm-377.001 277.272h18.401l-34.021 31.591-35.073-25.052 21.794-6.539zm-52.499-75h36.283l38.717 12.905v21.488l-25.607 25.606h-23.786l-25.607-25.605zm-45 95.582 28.633-8.59 46.366 33.119v47.119h-37.499v-37.5h-15v37.5h-22.5zm172.499 199.146h-179.999v-82.499h179.999zm14.999-97.499h-209.998v-15h209.998zm-12.344-122.228 68.212-55.219-.705 29.665-92.662 82.41v35.372h-60v-47.708l47.945-44.52zm284.346-247.273h-384.5v-15h384.5z"/><path d="m340.573 91.267-19.393-19.394h-58.713l-19.394 19.394v115.605h15v-52.5h67.5v52.5h15zm-15 48.105h-67.5v-41.893l10.606-10.606h46.287l10.606 10.606v41.893z"/><path d="m355.573 139.372v67.5h75v-97.499h-75v15h60v14.999zm60 52.5h-45v-37.5h45z"/><path d="m355.573 251.872h75v15h-75z"/><path d="m355.573 221.872h75v15h-75z"/><path d="m325.573 221.872h15v15h-15z"/><path d="m325.573 251.872h15v15h-15z"/><path d="m452 60h15v15h-15z"/><path d="m179.999 429.501h15v15h-15z"/><path d="m422 60h15v15.001h-15z"/></g></svg>