<svg id="Capa_1" enable-background="new 0 0 512 512" height="512" viewBox="0 0 512 512" width="512" xmlns="http://www.w3.org/2000/svg"><g><path d="m248.502 89.999h15v15h-15z"/><path d="m248.502 332.001h15v15h-15z"/><path d="m278.502 59.999h74.999v15h-74.999z"/><path d="m278.502 89.999h74.999v15h-74.999z"/><path d="m248.502 59.999h15v15h-15z"/><path d="m76 467h307.501v15h-307.501z"/><path d="m308.501 332.001h15v15h-15z"/><path d="m383.501 392.001v-105h-165v105zm-150-90h135v75h-135z"/><path d="m473.5 164.999v-112.499h-30v-52.5h-382.5c-12.406 0-22.5 10.094-22.5 22.5v44.999h15v-44.999c0-4.136 3.364-7.5 7.5-7.5h37.5v422.001h-22.501c-8.435 0-16.228 2.8-22.499 7.518v-362.02h-15v392.001c0 20.678 16.822 37.5 37.499 37.5h367.501v-45h-15v30h-352.501c-12.406 0-22.499-10.094-22.499-22.5s10.093-22.499 22.499-22.499h367.501v-32.003h30v-112.5h-30v-15h30v-112.499h-30v-15zm-15-97.499v82.499h-15v-82.499zm-345-52.5h14.999v422.001h-14.999zm315 422.001h-285.001v-422.001h285.001zm30-114.503v82.5h-15v-82.5zm0-127.499v82.499h-15v-82.499z"/><path d="m338.501 332.001h15v15h-15z"/><path d="m278.502 332.001h15v15h-15z"/><path d="m398.501 467h15v15h-15z"/><path d="m398.501 60h15v45h-15z"/><path d="m398.501 30h15v15h-15z"/></g></svg>