<svg xmlns="http://www.w3.org/2000/svg" viewBox="0 0 853.69 221.88"><defs><style>.cls-1{fill:#00a599;}.cls-2{font-size:40.1px;fill:#666;font-family:GillSans-Light, GillSans Light;font-weight:300;letter-spacing:0.2em;}.cls-3{letter-spacing:0.2em;}.cls-4{letter-spacing:0.2em;}</style></defs><g id="Layer_2" data-name="Layer 2"><g id="Layer_1-2" data-name="Layer 1"><path d="M121.9,125.58a61.29,61.29,0,1,1,0-90.18,92.69,92.69,0,0,1,10.86-16,80.48,80.48,0,1,0,0,122.28A92.69,92.69,0,0,1,121.9,125.58Z"/><path class="cls-1" d="M254.46,119a61.32,61.32,0,1,1,1.79-74.63h22.42A80.4,80.4,0,1,0,277.5,119Z"/><path class="cls-1" d="M368.2,142v8.42A40,40,0,0,1,348.74,155a30.1,30.1,0,0,1-15.2-3.59,26.57,26.57,0,0,1-9.88-9.92A26.88,26.88,0,0,1,320,127.84a26.08,26.08,0,0,1,8.32-19.63,28.56,28.56,0,0,1,20.54-8q8.43,0,18.73,4.41v8.24q-9.37-5.37-18.34-5.37a21.24,21.24,0,0,0-15.26,5.8A19.27,19.27,0,0,0,328,127.84a19.07,19.07,0,0,0,6,14.48q6,5.67,15.29,5.66A34.66,34.66,0,0,0,368.2,142Z"/><path class="cls-1" d="M403.86,100.16q12.39,0,20.65,7.85a26.08,26.08,0,0,1,8.25,19.69,25.62,25.62,0,0,1-8.33,19.58q-8.31,7.75-21,7.75-12.1,0-20.15-7.75a25.83,25.83,0,0,1-8.06-19.44q0-12,8.11-19.83T403.86,100.16Zm.31,7.28q-9.18,0-15.09,5.74a19.57,19.57,0,0,0-5.91,14.66,19.22,19.22,0,0,0,5.93,14.41,22,22,0,0,0,29.78-.12,19.58,19.58,0,0,0,6-14.59,19.15,19.15,0,0,0-6-14.31A20.36,20.36,0,0,0,404.17,107.44Z"/><path class="cls-1" d="M484.71,100.93h7.16v53.49h-7.69V112.8l-16.45,20.68h-1.42L449.67,112.8v41.62H442V100.93h7.25l17.78,22Z"/><path class="cls-1" d="M503,154.42V100.85h17q7.66,0,12.22,4.14c3,2.76,4.55,6.45,4.55,11.1a14.89,14.89,0,0,1-2.33,8.27,13.39,13.39,0,0,1-6.4,5.23q-4.07,1.64-11.64,1.63h-5.66v23.2Zm15.62-46.75h-7.92V124.4h8.38c3.12,0,5.51-.73,7.21-2.2a7.91,7.91,0,0,0,2.51-6.29Q528.78,107.68,518.6,107.67Z"/><path class="cls-1" d="M580.6,100.93h7.69v30.36a36.09,36.09,0,0,1-.9,9.31,19.91,19.91,0,0,1-2.23,5.23,16.28,16.28,0,0,1-3.23,3.72Q575.59,155,565.32,155c-7,0-12.57-1.8-16.77-5.44a17.55,17.55,0,0,1-3.25-3.76,19.43,19.43,0,0,1-2.17-5.12,38,38,0,0,1-.86-9.49V100.93H550v30.36q0,7.54,1.73,10.5a12.23,12.23,0,0,0,5.25,4.73,18.24,18.24,0,0,0,8.3,1.77q6.81,0,11.11-3.56a10.9,10.9,0,0,0,3.24-4.51c.67-1.74,1-4.71,1-8.93Z"/><path class="cls-1" d="M594.34,100.85H639v6.82H620.39v46.75h-7.7V107.67H594.34Z"/><path class="cls-1" d="M655.5,100.62h5.38l24,53.8H677l-7.12-15.85H647.07l-6.68,15.85h-7.88Zm11.25,31.13-8.63-19.37-8,19.37Z"/><path class="cls-1" d="M717.22,155l-.19.66a5.83,5.83,0,0,1,3.24,1.91,4.94,4.94,0,0,1,1.16,3.22,6.41,6.41,0,0,1-2.33,5c-1.57,1.36-4.05,2.05-7.47,2.05a14.94,14.94,0,0,1-2.49-.2v-4.32c1.31.09,2.12.14,2.45.14a6.09,6.09,0,0,0,3.42-.83,1.56,1.56,0,0,0,.72-1.31,1.84,1.84,0,0,0-.8-1.52,4.75,4.75,0,0,0-2.88-.62,3.45,3.45,0,0,0-.88.12l1.61-4.52a26.86,26.86,0,0,1-24.12-26.93A26.08,26.08,0,0,1,697,108.21a28.57,28.57,0,0,1,20.55-8q8.41,0,18.72,4.41v8.24q-9.37-5.37-18.34-5.37a21.2,21.2,0,0,0-15.25,5.8,20.47,20.47,0,0,0-.11,29q6,5.67,15.28,5.66a34.61,34.61,0,0,0,19-6v8.42A39.88,39.88,0,0,1,717.37,155Z"/><path class="cls-1" d="M763.32,100.62h5.39l24,53.8h-7.83l-7.14-15.85H754.9l-6.69,15.85h-7.86Zm14-14.24a11.35,11.35,0,0,1-2.13,7.24,4.93,4.93,0,0,1-4,2,15.23,15.23,0,0,1-5.67-1.53,15.59,15.59,0,0,0-5.37-1.53,2.31,2.31,0,0,0-1.72.77,3.79,3.79,0,0,0-.88,2.29h-3.21q.62-5.4,2.21-7.21a5.18,5.18,0,0,1,4.06-1.82c1.48,0,3.9.68,7.24,2a11.64,11.64,0,0,0,3.68,1,2.5,2.5,0,0,0,1.82-.75,4.33,4.33,0,0,0,1-2.54Zm-2.72,45.37L766,112.38l-8,19.37Z"/><path class="cls-1" d="M824.8,100.16q12.41,0,20.65,7.85a26.07,26.07,0,0,1,8.24,19.69,25.61,25.61,0,0,1-8.32,19.58Q837,155,824.38,155q-12.09,0-20.15-7.75a25.86,25.86,0,0,1-8.05-19.44q0-12,8.11-19.83T824.8,100.16Zm.31,7.28q-9.2,0-15.09,5.74a19.58,19.58,0,0,0-5.92,14.66A19.25,19.25,0,0,0,810,142.25a22,22,0,0,0,29.78-.12,19.54,19.54,0,0,0,6-14.59,19.11,19.11,0,0,0-6-14.31A20.33,20.33,0,0,0,825.11,107.44Z"/><path d="M343.18,22.34q-8.93,0-14.07,5.73c-3.41,3.8-5.13,9-5.13,15.65q0,10.17,4.85,15.79t13.83,5.62a37.48,37.48,0,0,0,11-1.53v2.92a36,36,0,0,1-11.76,1.66q-10,0-15.75-6.47c-3.85-4.3-5.76-10.33-5.76-18.05a28.36,28.36,0,0,1,2.74-12.77,20,20,0,0,1,7.9-8.52,23.33,23.33,0,0,1,12-3A28.78,28.78,0,0,1,355.43,22l-1.33,3A24.3,24.3,0,0,0,343.18,22.34Z"/><path d="M364.23,67.53V20h3.31V67.53Z"/><path d="M406.94,67.53H381V20h25.94V23.1H384.31v18h21.37v3H384.31V64.47h22.63Zm-22.45-51.8c1.34-1.46,2.77-3.14,4.28-5.07a56.46,56.46,0,0,0,3.59-5.07h3.18a62.29,62.29,0,0,0,7.86,10.14v.52h-2.28A80.34,80.34,0,0,1,394,9.52a80,80,0,0,1-7.18,6.73h-2.28Z"/><path d="M452.21,67.53h-3.33L420.75,25.37h-.26c.26,5,.38,8.81.38,11.37V67.53h-3.18V20H421l28.1,42.1h.19Q449,56.29,449,51V20h3.21Z"/><path d="M485.93,22.34q-8.94,0-14.07,5.73c-3.41,3.8-5.13,9-5.13,15.65q0,10.17,4.84,15.79t13.84,5.62a37.41,37.41,0,0,0,11-1.53v2.92a35.92,35.92,0,0,1-11.75,1.66q-10,0-15.76-6.47c-3.84-4.3-5.75-10.33-5.75-18.05a28.23,28.23,0,0,1,2.75-12.77,19.84,19.84,0,0,1,7.89-8.52,23.32,23.32,0,0,1,12-3A28.71,28.71,0,0,1,498.17,22l-1.33,3A24.26,24.26,0,0,0,485.93,22.34Z"/><path d="M507,67.53V20h3.31V67.53Z"/><path d="M546.6,50.78H527.31l-6.63,16.75H517l19.1-47.68h2.11l18.71,47.68h-3.74Zm-18.08-3h17L539,30.67c-.55-1.35-1.19-3.21-1.95-5.59a51,51,0,0,1-1.91,5.65Z"/><path d="M617,43.33q0,12-6.26,18.08T592.3,67.53H580.93V20h12.83q11.37,0,17.3,5.95T617,43.33Zm-3.61.13q0-10.2-5.17-15.35T593,23h-8.74V64.61h7.86Q613.39,64.61,613.37,43.46Z"/><path d="M650.76,50.78H631.47l-6.64,16.75h-3.66l19.11-47.68h2.1l18.71,47.68h-3.74Zm-18.1-3h17L643.2,30.67c-.54-1.35-1.2-3.21-2-5.59a51,51,0,0,1-1.91,5.65Z"/><path class="cls-1" d="M206.81,95a14.47,14.47,0,1,1,14.46-14.47A14.46,14.46,0,0,1,206.81,95Z"/><rect class="cls-1" x="206.81" y="77.2" width="78.09" height="6.57"/><text class="cls-2" transform="translate(320.38 211.86)">IFG <tspan class="cls-3" x="95.61" y="0">A</tspan><tspan class="cls-4" x="128.05" y="0">nápolis</tspan></text></g></g></svg>