<svg xmlns="http://www.w3.org/2000/svg" viewBox="0 0 313.25 100.13"><defs><style>.cls-1{fill:#424151;}.cls-2{fill:#c71a19;}</style></defs><title>logo-produz</title><g id="Layer_2" data-name="Layer 2"><g id="Layer_1-2" data-name="Layer 1"><path class="cls-1" d="M121.25,58H133.8c7,0,11.45,4.51,11.45,11.33v.1c0,7.6-5.42,11.57-12.06,11.57h-5.94V91h-6Zm11.3,17c4.13,0,6.7-2.48,6.7-6V69c0-3.9-2.62-6-6.7-6h-6.3V75Z"/><path class="cls-1" d="M151.22,58h13.64c3.83,0,6.89,1.23,8.85,3.31a10.33,10.33,0,0,1,2.54,7.11v-.88A10.19,10.19,0,0,1,168.82,78l8.34,13h-6.42l-7.63-12h-6.86V91h-5ZM164,74c3.8,0,6.22-2.15,6.22-5.48v-.08c0-3.51-2.33-5.44-6.26-5.44h-7.74V74Z"/><path class="cls-1" d="M181.25,74.57v-.1c0-9.23,6.64-17,16-17s16,7.65,16,16.89v.09c0,9.24-6.65,17-16.05,17s-15.95-7.69-15.95-16.87m27,0v-.1c0-6.46-4.38-11.83-10.54-11.83s-10.46,5.27-10.46,11.74v.09c0,6.46,4.39,11.83,10.55,11.83S208.25,81,208.25,74.57"/><path class="cls-1" d="M220.25,58h11.52c9.75,0,16.48,7.12,16.48,16.41v.09c0,9.29-6.73,16.5-16.48,16.5H220.25Zm23,17.22V73.78A10.78,10.78,0,0,0,232.47,63h-6.22V86h6.22a10.78,10.78,0,0,0,10.78-10.78"/><path class="cls-1" d="M254.25,77.18V58h6V77c0,6.18,3.07,9.51,8,9.51s8-3.14,8-9.28V58h5V76.9c0,9.91-5.32,14.91-13.56,14.91s-13.44-5-13.44-14.63"/><polygon class="cls-1" points="288.25 86.69 306.32 63 288.25 63 288.25 58 313.25 58 313.25 62.32 294.82 86 313.25 86 313.25 91 288.25 91 288.25 86.69"/><rect class="cls-1" x="121.25" y="9" width="2" height="31"/><polygon class="cls-1" points="132.25 9 153.25 9 153.25 11 134.21 11 134.25 24 151.25 24 151.25 26 134.25 26 134.25 40 132.25 40 132.25 9"/><path class="cls-1" d="M157.25,24.67v-1c0-7.5,5.07-14.41,12.81-14.41A13,13,0,0,1,179.55,13l-1.26,1.55A11.25,11.25,0,0,0,170,11.16c-6.31,0-10.71,5.72-10.71,12.43v.72c0,8.18,4.75,14.26,12.62,14.26A14.52,14.52,0,0,0,181.25,35V26h-10V24h12V35.91a16.87,16.87,0,0,1-11.4,4.63c-9.17,0-14.6-7.21-14.6-15.87"/><path class="cls-2" d="M46,29.91c0-.53-.74-1.17-.74-1.17V22.57A1.25,1.25,0,0,0,46,21a1.26,1.26,0,0,0-.75-.75V7L42.48,4.33a.17.17,0,0,0,0-.1A1.19,1.19,0,0,0,41.34,3h-.1l-1.1-1.59-4.5.5a1.1,1.1,0,0,0-2.09.17L30,2.27,14.66,10.56l.42,6.22a1.2,1.2,0,0,0-.74,1.06L7.62,19.39,0,43.91l2,3.43a1.11,1.11,0,0,0-.25.48,1.61,1.61,0,0,0,0,.31,1.34,1.34,0,0,0,.3.83L0,52.51,4.29,64.07A1.35,1.35,0,0,0,4,64.7v.19a1.2,1.2,0,0,0,1.14,1.24,1,1,0,0,0,.72-.29l5.86,3.61a1.41,1.41,0,0,0,0,.29,1.26,1.26,0,0,0,.33.87L10.31,74l8.51,11.36,5.29,2.62A1.23,1.23,0,0,0,24.78,89h.09L25,89l-1.92,4.19L29.9,97h8.89a1.12,1.12,0,0,0,1.3.82,1.1,1.1,0,0,0,.88-.88,1.31,1.31,0,0,0,0-.28,1.23,1.23,0,0,0-.31-.84l4-7.39h.28a1.17,1.17,0,0,0,1.13-1.22c0-.53-.32-1-1.82-1.17V79.21c1.5-.17,1.84-.64,1.82-1.17s-.32-1-1.82-1.17V59.32c1.65-.23,2-.93,1.76-1.58-.12-.36-.4-.64-1.76-.76V43.91c1.65-.23,2-.93,1.76-1.58-.12-.36-.4-.64-1.76-.76V31.08c1.47-.19,1.77-.66,1.74-1.17M4.25,48v-.1l8.24-6.67,9.89-8a1,1,0,0,0,.54.24l1.92,13.76a1.18,1.18,0,0,0-.62.77ZM22,31a1.29,1.29,0,0,0-.26,1.3l-18,14.59L15.38,19h.16a1.13,1.13,0,0,0,.26,0l2.1,4ZM25.8,63.46,35,69.12l0,.06a1.24,1.24,0,0,0,.26,1L25.37,87h-.12V63.75a1.12,1.12,0,0,0,.49-.3ZM38.24,86a1.2,1.2,0,0,0-.64.83l-11.29.62a1.2,1.2,0,0,0-.3-.62L35.83,70H36l.07.49ZM26,62.44a.71.71,0,0,0,0-.29.76.76,0,0,0,0-.3L26,61.67a1.13,1.13,0,0,0-.74-.69V49.49l10,18.58ZM25.17,47h0L23.24,33.28a1.48,1.48,0,0,0,.67-1.38L32.34,27l2.15-1.26.06.06-3.8,8.7ZM43.73,29.1l-7.66-4.05a.81.81,0,0,0,0-.22l7.54-2.54a1.12,1.12,0,0,0,.64.49v6a1.23,1.23,0,0,0-.52.32m-9.64-4.3h0a1.22,1.22,0,0,0,0,.27L33,25.74l-9.44,5.54a1.05,1.05,0,0,0-.81-.37,1.13,1.13,0,0,0-.26,0l-4.53-8.74-1.69-3.26a.9.9,0,0,0,.15-.19l8.9,3ZM3.58,49H23.47a1.22,1.22,0,0,0,.78.84V61.41a1,1,0,0,0-.47.29L4.88,49.82Zm2.68,16,17.23-2.36-9.91,6.16a1.08,1.08,0,0,0-.79-.35,1.13,1.13,0,0,0-.79.35L6.21,65.28a1,1,0,0,0,0-.23M39.78,95.4a1.12,1.12,0,0,0-.78.34L26.85,88.25l10.82-.42a1.1,1.1,0,0,0,1.46.51,1.08,1.08,0,0,0,.54-.59l4.12-.16a1.25,1.25,0,0,0,.26.48l-4,7.38a.76.76,0,0,0-.27,0M43.44,87h-4a1.14,1.14,0,0,0-.95-.87L36.65,73l-.4-2.81.1-.06.81.84,6.4,6.61a1.26,1.26,0,0,0-.14.57,1.21,1.21,0,0,0,.83,1.17v6.83a1.18,1.18,0,0,0-.82.83ZM44,77l-7.22-7.43a1.15,1.15,0,0,0,.14-.57,1.29,1.29,0,0,0-.18-.67l1.51-1.87,5.82-7.19.18.07V76.9A.82.82,0,0,0,44,77Zm-.59-19a1.56,1.56,0,0,0,.18.67l-7.33,9a1,1,0,0,0-.49-.12H35.5l-10-18.7a1.26,1.26,0,0,0,.32-.82l17.76-4.92a1.13,1.13,0,0,0,.67.56V56.79A1.22,1.22,0,0,0,43.4,58Zm0-15L25.29,48l-.24-.28,5.68-13L34.55,26h.18a1.1,1.1,0,0,0,.86-.41l7.82,4.08v0a1.24,1.24,0,0,0,.83,1.38V41.84A1.2,1.2,0,0,0,43.39,43Zm.85-35.17V20.76a1.21,1.21,0,0,0-.83,1.17l-7.54,2.54a1.1,1.1,0,0,0-.33-.35L39.35,11l1.46-5H41a1.07,1.07,0,0,0,.89-.46ZM40.56,3.49a1.3,1.3,0,0,0-.43,1,1.26,1.26,0,0,0,.39.91L39,10.68l-3.75,13a1.11,1.11,0,0,0-1,.55l-8.47-2.87-9.22-3.14a1.32,1.32,0,0,0-.08-.44l9.39-7.64,7.88-6.41a1.06,1.06,0,0,0,.75.31,1.17,1.17,0,0,0,1.13-1.12l4.09-.45ZM30.08,3.17,33.48,3v.07L25.16,9.82l-9,7.32a1.18,1.18,0,0,0-.45-.22l-.39-5.76ZM8.2,20.07l6.3-1.44a1.41,1.41,0,0,0,.27.37L3.07,47H2.91a1.19,1.19,0,0,0-.32,0L.76,43.9ZM2.92,49.46l.07,0a1.06,1.06,0,0,0,1-.31l.77.48L24.25,61.84V62L6.56,64.39a1.13,1.13,0,0,0-1-.72.92.92,0,0,0-.28,0L1,52.57Zm8.61,24.45,1.54-3a1.13,1.13,0,0,0,.26,0,1.18,1.18,0,0,0,1.11-1.45.21.21,0,0,0,0-.07L24.77,63a1.22,1.22,0,0,0,.48.3V86.7a1.12,1.12,0,0,0-.51.5l-5-2.49ZM23.89,92.58l1.86-4a1.52,1.52,0,0,0,.33-.34L38.68,96H30Z"/><path class="cls-2" d="M48.25,31.08V41.69a1.25,1.25,0,0,0-.76,1.58,1.3,1.3,0,0,0,.76.76v13a1.25,1.25,0,0,0-.76,1.58,1.3,1.3,0,0,0,.76.76V77a1.24,1.24,0,0,0-.83,1.17,1.21,1.21,0,0,0,.83,1.17v6.82a1.22,1.22,0,0,0-.83,1.17,1.18,1.18,0,0,0,1.14,1.22h0a1.31,1.31,0,0,0,.28,0l4,7.38a1.28,1.28,0,0,0-.31.84,1.31,1.31,0,0,0,0,.28,1.1,1.1,0,0,0,2.17,0h8.89l6.78-3.77-1.92-4.18.16,0h.18s.66-.67.67-1.12l5.28-2.61L83.22,74l-1.73-3.38a1.28,1.28,0,0,0,.33-.87.71.71,0,0,0,0-.29l5.84-3.6a1.08,1.08,0,0,0,.72.29,1.19,1.19,0,0,0,1.14-1.23.61.61,0,0,0,0-.19,1.18,1.18,0,0,0-.29-.63l4.22-11.48-2-3.48a1.24,1.24,0,0,0,.3-.82,1.61,1.61,0,0,0,0-.31,1.11,1.11,0,0,0-.25-.48l2-3.42L85.8,19.57l-6.64-1.52A1.2,1.2,0,0,0,78.41,17l.42-6.2L63.54,2.53,60,2.34A1.13,1.13,0,0,0,59,1.51a1.12,1.12,0,0,0-1,.66l-4.49-.49L52.31,3H52.2c-.65.3-1.16.85-1,1.5v.1l-3,2.63V20.46A1.25,1.25,0,0,0,47.54,22a1.32,1.32,0,0,0,.71.77v6A1.26,1.26,0,0,0,47.48,30c0,.51.77,1.12.77,1.12M69.27,48a1.17,1.17,0,0,0-.62-.77l1.93-13.76a1.06,1.06,0,0,0,.54-.24l9.88,8,8.25,6.67V48Zm6.4-25,2.1-4A1.13,1.13,0,0,0,78,19h.16L89.84,46.87l-18-14.59a1.26,1.26,0,0,0-.25-1.3ZM68.25,63.78V87h-.11L58.31,70.18a1.28,1.28,0,0,0,.27-1.05l0-.06,9.21-5.66a1.22,1.22,0,0,0,.44.34ZM57.47,70.49l.07-.49h.17l9.82,16.8a1.45,1.45,0,0,0-.31.62L55.94,86.8A1.18,1.18,0,0,0,55.3,86Zm.83-2.39,10-18.58V61a1.16,1.16,0,0,0-.73.69l-.06.18a1.5,1.5,0,0,0,0,.3,1.41,1.41,0,0,0,0,.29Zm4.5-33.62L59,25.78l.07-.06L61.21,27l8.43,4.94a1.48,1.48,0,0,0,.67,1.38L68.38,47.06ZM49.25,28.77v-6a1.09,1.09,0,0,0,.64-.49l7.54,2.54V25l-7.67,4.05a1.14,1.14,0,0,0-.51-.35Zm18.93-6.93,8.9-3a1.33,1.33,0,0,0,.14.19l-1.69,3.26L71,31a1,1,0,0,0-.25,0,1.12,1.12,0,0,0-.82.37L60.5,25.86l-1.14-.67a1.22,1.22,0,0,0,0-.27Zm20.45,28L69.73,61.7a1,1,0,0,0-.48-.29V49.84A1.16,1.16,0,0,0,70,49H89.92ZM87.28,65.31l-5.79,3.57a1.14,1.14,0,0,0-.8-.35,1.09,1.09,0,0,0-.79.35L70,62.72l17.24,2.36a1.18,1.18,0,0,0,0,.2ZM53.41,95.48l-4-7.38a1.25,1.25,0,0,0,.26-.48l4.11.16a1.1,1.1,0,0,0,1.44.6,1.09,1.09,0,0,0,.56-.52l10.81.42L54.45,95.77a1.07,1.07,0,0,0-.79-.34.78.78,0,0,0-.26,0Zm-4.16-9.31V79.34a1.18,1.18,0,0,0,.83-1.17,1.26,1.26,0,0,0-.14-.57L56.33,71l.81-.84.1.06L56.85,73,55,86.13A1.16,1.16,0,0,0,54,87H50a1.16,1.16,0,0,0-.77-.86Zm0-9.26V59.32l.17-.07,5.83,7.19,1.51,1.87a1.3,1.3,0,0,0-.19.67,1.59,1.59,0,0,0,.14.57L49.51,77a1.11,1.11,0,0,0-.27-.12Zm0-19.9V43.91a1.13,1.13,0,0,0,.67-.56l17.76,4.92a1.31,1.31,0,0,0,.32.82L58,67.79a1.31,1.31,0,0,0-.28,0,1.17,1.17,0,0,0-.48.12l-7.34-9a1.21,1.21,0,0,0,.19-.67A1.2,1.2,0,0,0,49.24,57Zm0-15.51V31a1.21,1.21,0,0,0,.82-1.35v0l7.66-4a1.11,1.11,0,0,0,.85.4h.18l3.74,8.54L68.1,47.3l-.24.28L50.1,42.67a1.2,1.2,0,0,0-.86-1.2Zm2.38-36a1.07,1.07,0,0,0,.88.46h.18l1.46,5L58,24.12a1.1,1.1,0,0,0-.33.35l-7.54-2.54a1.18,1.18,0,0,0-.83-1.17v-13Zm2.11-3.15,4.09.45A1.17,1.17,0,0,0,59,4a1.08,1.08,0,0,0,.74-.31l7.88,6.41L77,17.7a1.32,1.32,0,0,0-.08.44l-9.23,3.14-8.46,2.87a1.13,1.13,0,0,0-1-.55l-3.76-13L52.93,5.32a1.26,1.26,0,0,0,.39-.91,1.24,1.24,0,0,0-.43-1Zm24.62,8.8L78,17a1.39,1.39,0,0,0-.46.22l-9-7.32L60.25,3.06V3l3.39.18ZM92.77,43.9l-1.83,3.15a1.06,1.06,0,0,0-.31,0h-.16L78.76,19a1.13,1.13,0,0,0,.28-.37l6.3,1.44Zm-.41,8.73L88.23,63.75a.93.93,0,0,0-.29,0,1.14,1.14,0,0,0-1,.72L69.25,62v-.12l19.42-12.3.77-.48a1.11,1.11,0,0,0,1,.31l.06,0ZM74.77,84.73l-5,2.49a1.1,1.1,0,0,0-.52-.5V63.32a1.09,1.09,0,0,0,.48-.3L80,69.43l0,.07A1.2,1.2,0,0,0,81.17,71h.26l1.54,3ZM63.54,96h-8.7l12.6-7.76a1.56,1.56,0,0,0,.35.33l1.85,4Z"/><path class="cls-2" d="M52.46,2.29a2.7,2.7,0,0,1,2.6,2.79,2.61,2.61,0,1,1-5.2,0,2.7,2.7,0,0,1,2.6-2.79"/><path class="cls-2" d="M49.49,27.31a2.8,2.8,0,1,1-2.6,2.79,2.7,2.7,0,0,1,2.6-2.79"/><path class="cls-2" d="M70.89,29.78a2.8,2.8,0,1,1-2.6,2.79,2.7,2.7,0,0,1,2.6-2.79"/><path class="cls-2" d="M77.89,15.51a2.7,2.7,0,0,1,2.6,2.79,2.61,2.61,0,1,1-2.6-2.79"/><path class="cls-2" d="M58.82,0a2.7,2.7,0,0,1,2.6,2.79,2.61,2.61,0,1,1-5.2,0A2.7,2.7,0,0,1,58.82,0"/><path class="cls-2" d="M55.25,84.53a2.8,2.8,0,1,1-2.6,2.79,2.7,2.7,0,0,1,2.6-2.79"/><path class="cls-2" d="M49.49,84.53a2.8,2.8,0,1,1-2.6,2.79,2.7,2.7,0,0,1,2.6-2.79"/><path class="cls-2" d="M49.49,75.34a2.8,2.8,0,1,1-2.6,2.79,2.7,2.7,0,0,1,2.6-2.79"/><path class="cls-2" d="M49.49,55.3a2.8,2.8,0,1,1-2.6,2.79,2.7,2.7,0,0,1,2.6-2.79"/><path class="cls-2" d="M49.49,39.8a2.8,2.8,0,1,1-2.6,2.79,2.7,2.7,0,0,1,2.6-2.79"/><path class="cls-2" d="M68.84,45.15a2.8,2.8,0,1,1-2.6,2.79,2.7,2.7,0,0,1,2.6-2.79"/><path class="cls-2" d="M90.38,45.56a2.8,2.8,0,1,1-2.6,2.79,2.7,2.7,0,0,1,2.6-2.79"/><path class="cls-2" d="M49.49,18.8a2.8,2.8,0,1,1-2.6,2.79,2.7,2.7,0,0,1,2.6-2.79"/><path class="cls-2" d="M58.41,22.1a2.8,2.8,0,1,1-2.6,2.79,2.7,2.7,0,0,1,2.6-2.79"/><path class="cls-2" d="M68.29,84.67a2.8,2.8,0,1,1-2.6,2.79,2.7,2.7,0,0,1,2.6-2.79"/><path class="cls-2" d="M57.72,66.28a2.8,2.8,0,1,1-2.6,2.79,2.7,2.7,0,0,1,2.6-2.79"/><path class="cls-2" d="M68.29,59.42a2.8,2.8,0,1,1-2.6,2.79,2.7,2.7,0,0,1,2.6-2.79"/><path class="cls-2" d="M53.47,94.55a2.8,2.8,0,1,1-2.6,2.79,2.7,2.7,0,0,1,2.6-2.79"/><path class="cls-2" d="M81.05,67.11a2.8,2.8,0,1,1-2.6,2.79,2.7,2.7,0,0,1,2.6-2.79"/><path class="cls-2" d="M88.32,62.3a2.8,2.8,0,1,1-2.6,2.79,2.7,2.7,0,0,1,2.6-2.79"/><path class="cls-2" d="M41,2.29a2.7,2.7,0,0,1,2.6,2.79,2.61,2.61,0,1,1-5.2,0A2.7,2.7,0,0,1,41,2.29"/><path class="cls-2" d="M44,27.31a2.8,2.8,0,1,1-2.6,2.79A2.7,2.7,0,0,1,44,27.31"/><path class="cls-2" d="M22.59,29.78A2.8,2.8,0,1,1,20,32.57a2.7,2.7,0,0,1,2.6-2.79"/><path class="cls-2" d="M15.59,15.51a2.7,2.7,0,0,1,2.6,2.79,2.7,2.7,0,0,1-2.6,2.79,2.8,2.8,0,0,1,0-5.58"/><path class="cls-2" d="M34.67,0a2.7,2.7,0,0,1,2.6,2.79,2.61,2.61,0,1,1-5.2,0A2.7,2.7,0,0,1,34.67,0"/><path class="cls-2" d="M38.24,84.53a2.8,2.8,0,1,1-2.6,2.79,2.7,2.7,0,0,1,2.6-2.79"/><path class="cls-2" d="M44,84.53a2.8,2.8,0,1,1-2.6,2.79A2.7,2.7,0,0,1,44,84.53"/><path class="cls-2" d="M44,75.34a2.8,2.8,0,1,1-2.6,2.79A2.7,2.7,0,0,1,44,75.34"/><path class="cls-2" d="M44,55.3a2.8,2.8,0,1,1-2.6,2.79A2.7,2.7,0,0,1,44,55.3"/><path class="cls-2" d="M44,39.8a2.8,2.8,0,1,1-2.6,2.79A2.7,2.7,0,0,1,44,39.8"/><path class="cls-2" d="M24.65,45.15a2.8,2.8,0,1,1-2.6,2.79,2.7,2.7,0,0,1,2.6-2.79"/><path class="cls-2" d="M3.11,45.56a2.8,2.8,0,0,1,0,5.58,2.8,2.8,0,0,1,0-5.58"/><path class="cls-2" d="M44,18.8a2.8,2.8,0,1,1-2.6,2.79A2.7,2.7,0,0,1,44,18.8"/><path class="cls-2" d="M35.08,22.1a2.8,2.8,0,1,1-2.6,2.79,2.7,2.7,0,0,1,2.6-2.79"/><path class="cls-2" d="M25.2,84.67a2.8,2.8,0,1,1-2.6,2.79,2.7,2.7,0,0,1,2.6-2.79"/><path class="cls-2" d="M35.77,66.28a2.8,2.8,0,1,1-2.6,2.79,2.7,2.7,0,0,1,2.6-2.79"/><path class="cls-2" d="M25.2,59.42a2.8,2.8,0,1,1-2.6,2.79,2.7,2.7,0,0,1,2.6-2.79"/><path class="cls-2" d="M40,94.55a2.8,2.8,0,1,1-2.6,2.79A2.7,2.7,0,0,1,40,94.55"/><path class="cls-2" d="M12.44,67.11a2.8,2.8,0,0,1,0,5.58,2.8,2.8,0,0,1,0-5.58"/><path class="cls-2" d="M5.17,62.3a2.8,2.8,0,0,1,0,5.58,2.8,2.8,0,0,1,0-5.58"/></g></g></svg>