<svg id="Capa_1" enable-background="new 0 0 512 512" height="512" viewBox="0 0 512 512" width="512" xmlns="http://www.w3.org/2000/svg"><g><path d="m458.5 0h-382.5c-12.406 0-22.5 10.094-22.5 22.5v45h15v-45c0-4.136 3.364-7.5 7.5-7.5h37.5v422h-22.5c-8.434 0-16.228 2.8-22.499 7.518v-362.018h-15v392c0 20.678 16.822 37.5 37.499 37.5h367.5v-45h-15v30h-352.501c-12.406 0-22.499-10.093-22.499-22.5 0-12.406 10.093-22.5 22.499-22.5h367.501zm-330 15h15v422h-15zm315 422h-285.001v-422h285.001z"/><path d="m319.902 182.625h52.5v15h-52.5v67.5h67.5v-97.5h-67.5zm52.5 67.5h-37.5v-37.5h37.5z"/><path d="m234.296 130.125-19.393 19.393v115.606h15v-52.5h60v52.5h15v-115.606l-19.393-19.393zm55.606 67.5h-60v-41.894l10.606-10.606h38.788l10.606 10.606z"/><path d="m417.402 295.124v-194.999h-232.499v194.999zm-217.499-179.999h202.499v164.999h-202.499z"/><path d="m91 467h307.501v15h-307.501z"/><path d="m413.5 467h15v15h-15z"/><path d="m353.5 30h45v15h-45z"/><path d="m413.5 30h15v15h-15z"/></g></svg>