<svg id="Capa_1" enable-background="new 0 0 511.999 511.999" height="512" viewBox="0 0 511.999 511.999" width="512" xmlns="http://www.w3.org/2000/svg"><g><path d="m419.135 404.47 16.864-16.864v-57.607c0-12.406-10.093-22.5-22.499-22.5h-37.501v-30h30v-45h-37.5v-80.656l-80.385-22.968-4.783-14.35 21.419-21.419v-93.106h-75c-12.406 0-22.5 10.093-22.5 22.5v70.606l21.419 21.419-4.783 14.35-80.386 22.968v80.656h-37.499v45h29.999v30h-37.5c-12.406 0-22.499 10.093-22.499 22.5v57.607l16.864 16.864-46.865 20.084v87.445h337.498v-15h-52.498v-62.554l46.538-19.945h26.922l46.539 19.945v62.554h-52.5v15h67.5v-87.445zm-65.636-241.313v69.342h-29.999v-30h-15v30h-24.42l-19.705-65.682 20.387-23.3zm-110.844-43.157h26.688l4.432 13.295-17.775 20.315-17.776-20.316zm25.764 112.499h-24.84l12.421-41.399zm-38.669-217.499h60v34.845l-41.73-12.839-25.77 11.453v-25.959c0-4.136 3.364-7.5 7.5-7.5zm-7.5 49.874 26.729-11.879 40.771 12.545v21.354l-18.108 18.106h-31.286l-18.106-18.107zm-63.75 98.283 68.737-19.64 20.387 23.3-19.705 65.682h-24.419v-30h-15v30h-30zm90 114.342v-15h-127.499v-15h269.997v15h-127.498v15h97.499v31.29c-8.729 3.096-15 11.432-15 21.209v57.607l16.864 16.864-39.363 16.871-39.364-16.87 16.864-16.865v-57.607c0-12.406-10.094-22.5-22.5-22.5h-45c-12.406 0-22.5 10.093-22.5 22.5v57.607l16.864 16.864-39.364 16.871-39.363-16.87 16.863-16.865v-57.607c0-9.777-6.271-18.113-15-21.209v-31.29zm-22.5 103.894v-51.395c0-4.135 3.364-7.5 7.5-7.5h45c4.136 0 7.5 3.364 7.5 7.5v51.395l-18.107 18.107h-23.787zm-135-51.395c0-4.135 3.364-7.5 7.499-7.5h45.001c4.136 0 7.5 3.364 7.5 7.5v51.395l-18.106 18.107h-23.787l-18.107-18.107zm90 167.001h-120v-62.554l46.54-19.945h26.922l46.538 19.945zm15 0v-62.554l46.539-19.945h26.922l46.539 19.945v62.554zm183.105-97.499-18.106-18.107v-51.395c0-4.135 3.364-7.5 7.5-7.5h45.001c4.135 0 7.499 3.364 7.499 7.5v51.395l-18.107 18.107z"/><path d="m316 292.499h15v15h-15z"/></g></svg>