<svg id="Capa_1" enable-background="new 0 0 512 512" height="512" viewBox="0 0 512 512" width="512" xmlns="http://www.w3.org/2000/svg"><g><path d="m482 387.172v-116.36l-31.82-31.82h-388.36l-31.82 31.82v116.36l31.82 31.82h317.754v-15h-311.541l-23.033-23.033v-103.935l23.033-23.032h375.934l23.033 23.032v103.935l-23.033 23.033h-49.393v15h55.606z"/><path d="m158.5 381.492v-105.001h-60v105.001zm-44.999-90.001h30v75.001h-30z"/><path d="m233.5 381.492v-105.001h-60v105.001zm-45-90.001h30v30h-30zm0 45.001h30v30h-30z"/><path d="m413.499 276.491h-60v105.001h60zm-15 90.001h-30v-75.001h30z"/><path d="m248.5 306.491h15v15h-15z"/><path d="m248.5 336.492h15v15h-15z"/><path d="m338.5 381.492v-105.001h-60v105.001zm-45-90.001h30v75.001h-30z"/><path d="m233.5 178.991h15v15h-15z"/><path d="m263.5 178.991h15v15h-15z"/><path d="m147.517 48.008v-15c-57.897 0-105 47.103-105 105h15c0-49.626 40.374-90 90-90z"/><path d="m394.483 138.008h15c0-24.813-20.187-45-45-45v15c16.542 0 30 13.458 30 30z"/><path d="m454.482 138.008h15c0-57.897-47.103-105-105-105v15c49.627 0 90 40.374 90 90z"/><path d="m424.483 138.008h15c0-41.355-33.645-75-75-75v15c33.084 0 60 26.916 60 60z"/><path d="m147.517 63.008c-41.355 0-75 33.645-75 75h15c0-33.084 26.916-60 60-60z"/><path d="m117.517 138.008c0-16.542 13.458-30 30-30v-15c-24.813 0-45 20.187-45 45z"/><path d="m474.5 208.992h-107.644l-15-60h-191.712l-15 60h-107.644c-20.678 0-37.5 16.822-37.5 37.5v37.5h15v-37.5c0-12.406 10.093-22.5 22.5-22.5h437c12.407 0 22.5 10.093 22.5 22.5v165c0 12.407-10.094 22.5-22.5 22.5h-437c-12.407 0-22.5-10.093-22.5-22.5v-112.501h-15v112.501c0 20.678 16.822 37.5 37.5 37.5h7.5v30h43.356l7.5-30h320.289l7.5 30h43.355v-30h7.5c20.678 0 37.5-16.822 37.5-37.5v-165c0-20.678-16.823-37.5-37.5-37.5zm-302.644-45.001h168.288l11.25 45h-190.788zm-95.212 300.001h-16.644v-15h20.394zm375.356 0h-16.644l-3.75-15h20.394z"/><path d="m437 283.991h15v15h-15z"/><path d="m437 313.991h15v15h-15z"/></g></svg>