<svg id="Capa_1" enable-background="new 0 0 512 512" height="512" viewBox="0 0 512 512" width="512" xmlns="http://www.w3.org/2000/svg"><g><path d="m170 332c0-12.406-10.093-22.5-22.5-22.5h-60c-12.406 0-22.5 10.093-22.5 22.5v7.5h-65v45h15v127.5h15v-127.499h50v30h-22.5v45h13.5v52.499h15v-52.5h60v52.5h15v-52.5h16.5v-45h-22.5v-30h50v127.5h15v-127.499h15v-45h-65zm-82.5-7.499h60c4.135 0 7.5 3.364 7.5 7.5v37.5h-75v-37.501c0-4.135 3.364-7.499 7.5-7.499zm-72.5 30h50v15h-50zm147.5 89.999h-90v-15h90zm-22.5-30h-45v-30h45zm80-59.999v15h-50v-15z"/><path d="m447 332c0-12.406-10.094-22.5-22.5-22.5h-60c-12.406 0-22.5 10.093-22.5 22.5v7.5h-65v45h15v127.5h15v-127.499h50v30h-22.5v45h13.5v52.499h15v-52.5h60v52.5h15v-52.5h16.5v-45h-22.5v-30h50v127.5h15v-127.499h15v-45h-65zm-82.5-7.499h60c4.136 0 7.5 3.364 7.5 7.5v37.5h-75v-37.501c0-4.135 3.364-7.499 7.5-7.499zm-72.5 30h50v15h-50zm147.5 89.999h-90v-15h90zm-22.5-30h-45v-30h45zm80-59.999v15h-50v-15z"/><path d="m0 0v45h248.5v-15h-233.5v-15h482v15h-233.5v15h248.5v-45z"/><path d="m15 60v219.501h188.5v30h105v-30h188.5v-219.501h-15v204.501h-35v-7.501c0-12.406-10.094-22.5-22.5-22.5h-60c-12.406 0-22.5 10.093-22.5 22.5v7.501h-312v-204.501zm278.5 234.501h-75v-15h75zm63.5-37.501c0-4.135 3.364-7.5 7.5-7.5h60c4.136 0 7.5 3.364 7.5 7.5v7.501h-75z"/><path d="m289.75 143.5h97.499v15h-97.499z"/><path d="m402.249 143.5h15.001v15h-15.001z"/><path d="m319.75 83.501h97.5v15h-97.5z"/><path d="m364.749 113.501h52.5v15h-52.5z"/><path d="m177.25 218.501v-115.607l-19.393-19.393h-51.213l-19.394 19.393v115.606h15v-52.5h60v52.5h15zm-75-67.501v-41.893l10.606-10.606h38.788l10.606 10.606v41.893z"/><path d="m289.75 83.501h15v15h-15z"/><path d="m192.25 151v67.5h67.5v-97.5h-67.5v15h52.5v15zm52.5 52.501h-37.5v-37.501h37.5z"/><path d="m289.75 113.501h60v15h-60z"/><path d="m452 60h15v15h-15z"/><path d="m452 90h15v45h-15z"/></g></svg>