<svg id="Capa_1" enable-background="new 0 0 512 512" height="512" viewBox="0 0 512 512" width="512" xmlns="http://www.w3.org/2000/svg"><g><path d="m497 448.25v-75s-17.353-.004-22.113-.008c-19.038-.017-37.021-.031-53.346.235l.244 14.998c16.196-.264 34.117-.248 53.089-.234 2.35.002 4.724.004 7.126.005v60.003h-149.229l-18.516-9.258 28.604-7.986-4.033-14.447-44.558 12.442-21.909-10.955c44.195-22.179 83.617-27.686 134.536-29.228l-.453-14.993c-56.699 1.717-99.831 8.217-150.435 35.858-66.924-36.564-121.383-36.53-218.834-36.439-4.78.004-22.173.007-22.173.007v75h-15v45h197.771l58.229-29.114 58.229 29.114h197.771v-45zm-467-60.002c2.422-.001 4.817-.003 7.185-.005 93.276-.074 143.151-.115 202.477 29.792l-21.93 10.965-44.558-12.44-4.033 14.447 28.604 7.986-18.516 9.258h-149.229zm467 90.002h-179.23l-61.77-30.885-61.77 30.885h-179.23v-15h167.771l73.229-36.614 73.229 36.614h167.771z"/><path d="m398.5 131.25h44.999v15h-44.999z"/><path d="m78.453 187.689h44.962v14.999h-44.962z" transform="matrix(.94 -.342 .342 .94 -60.674 46.296)"/><path d="m68.501 131.25h44.999v15h-44.999z"/><path d="m403.565 172.707h15v44.964h-15z" transform="matrix(.342 -.94 .94 .342 87.052 514.702)"/><path d="m93.435 59.829h14.999v44.962h-14.999z" transform="matrix(.342 -.94 .94 .342 -10.934 149.005)"/><path d="m388.584 74.81h44.964v15h-44.964z" transform="matrix(.94 -.342 .342 .94 -3.358 145.577)"/><path d="m203.5 246.677v64.572c0 10.305 6.966 19.008 16.435 21.663l7.709 30.837h56.712l7.71-30.837c9.468-2.655 16.435-11.358 16.435-21.663v-64.572c41.165-20.038 67.5-61.871 67.5-107.927 0-66.168-53.832-120-120-120-33.447 0-65.632 14.125-88.303 38.752l11.036 10.159c19.837-21.551 48-33.911 77.266-33.911 57.897 0 105 47.103 105 105 0 41.75-24.73 79.534-63.003 96.257l-4.497 1.965v21.777h-15v-98.707l19.024 5.098 3.883-14.488-86.933-23.293-3.882 14.488 22.907 6.138v110.765h-15v-21.777l-4.497-1.965c-38.272-16.724-63.002-54.508-63.002-96.258 0-21.682 6.555-42.493 18.957-60.185l-12.282-8.61c-14.18 20.228-21.675 44.017-21.675 68.795 0 46.056 26.335 87.888 67.5 107.927zm35.855 102.071-3.75-15h40.789l-3.75 15zm46.645-29.999h-60c-4.136 0-7.5-3.364-7.5-7.5v-7.5h75v7.5c0 4.135-3.364 7.5-7.5 7.5zm-37.5-166.744 15 4.019v102.726h-15zm45 121.745v15h-75v-15z"/><path d="m321.777 106.594 13.307-6.923c-14.356-27.595-40.447-43.421-71.584-43.421v15c25.351 0 46.592 12.882 58.277 35.344z"/><path d="m233.5 56.25h15v15h-15z"/><path d="m452 403.25h15.001v15h-15.001z"/><path d="m422 403.25h15v15h-15z"/></g></svg>