<svg id="Capa_1" enable-background="new 0 0 512 512" height="512" viewBox="0 0 512 512" width="512" xmlns="http://www.w3.org/2000/svg"><g><path d="m233.5 198.445h15v15h-15z"/><path d="m263.5 198.445h15v15h-15z"/><path d="m467 151.944h15v15h-15z"/><path d="m407.001 151.944h45v15h-45z"/><path d="m489.5 121.944h-89.5v-30h-15v-15c0-28.949-23.551-52.5-52.5-52.5h-153c-28.949 0-52.5 23.551-52.5 52.5v15h-15v30h-89.5c-12.406 0-22.5 10.094-22.5 22.5v37.5h15v-37.5c0-4.136 3.364-7.5 7.5-7.5h467c4.136 0 7.5 3.364 7.5 7.5v89.895l-40.606 40.606h-34.394v-29.999h-75v29.999h-182v-29.999h-75v29.999h-34.394l-40.606-40.606v-37.396h-15v268.111c0 12.406 10.094 22.5 22.5 22.5h414.5v-15h-414.5c-4.136 0-7.5-3.364-7.5-7.5v-37.499h482v37.499c0 4.136-3.364 7.5-7.5 7.5h-37.5v15h37.5c12.406 0 22.5-10.094 22.5-22.5v-320.61c0-12.406-10.094-22.5-22.5-22.5zm-104.5 0h-45v-15h45zm-213-29.999v-15c0-4.065 3.435-7.5 7.5-7.5h153c4.065 0 7.5 3.435 7.5 7.5v15h-15v30h-138v-30zm-30-15c0-20.678 16.822-37.5 37.5-37.5h153c20.677 0 37.5 16.822 37.5 37.5v15h-15v-15c0-12.407-10.093-22.5-22.5-22.5h-153c-12.406 0-22.5 10.093-22.5 22.5v15h-15zm-15 30h45v15h-45zm235 153.001h45v40.365l-22.5 11.25-22.5-11.25zm-257 0h45v40.365l-22.5 11.25-22.5-11.25zm-55.606 29.999h40.606v19.637l37.5 18.75 37.5-18.75v-19.637h182v19.637l37.5 18.75 37.5-18.75v-19.637h40.606l34.394-34.393v127.004h-482v-127.004zm-34.394 122.611v-15h482v15z"/></g></svg>