<svg id="Capa_1" enable-background="new 0 0 512 512" height="512" viewBox="0 0 512 512" width="512" xmlns="http://www.w3.org/2000/svg"><g><path d="m437 75v-75h-154.107l-26.893 26.894-26.893-26.894h-67.357v15h61.144l25.606 25.606v306.395h-218.5v-257.001h45v242.002h15v-317.002h56.75v-15h-71.75v75h-60v347.001h203.499v20.729l-12.135 24.27h-55.364c-12.407 0-22.5 10.093-22.5 22.5v22.5h255v-22.5c0-12.407-10.093-22.5-22.5-22.5h-55.364l-12.135-24.27v-20.729h128.5v-15h-392.001v-45h452v45h-45v15h60v-347.001zm-68.5 414.5v7.5h-225v-7.5c0-4.136 3.364-7.5 7.5-7.5h210c4.135 0 7.5 3.364 7.5 7.5zm-79.635-22.5h-65.731l10.365-20.729v-24.27h45.002v24.27zm-25.365-426.394 25.606-25.606h132.894v332.001h-158.5zm173.5 306.395v-257.001h45v257.002h-45z"/><path d="m248.5 377.001h15v15h-15z"/><path d="m407 60h-128.5v120h128.5zm-15 105h-98.5v-90h98.5z"/><path d="m105 302.002h56.75v-120h-56.75zm15-105h26.75v90h-26.75z"/><path d="m233.5 302.002v-120h-56.75v120zm-41.75-105h26.75v90h-26.75z"/><path d="m127.5 60h106v15h-106z"/><path d="m105 149.999h128.5v15h-128.5z"/><path d="m105 89.999h128.5v15h-128.5z"/><path d="m199.75 119.999h33.75v15h-33.75z"/><path d="m105 119.999h79.75v15h-79.75z"/><path d="m278.5 257.003h56.25v15h-56.25z"/><path d="m301 197.003h106.185v15h-106.185z"/><path d="m278.5 227.003h128.685v15h-128.685z"/><path d="m349.75 257.003h57.435v15h-57.435z"/><path d="m278.5 287.002h128.685v15h-128.685z"/><path d="m452 134.999h15v45h-15z"/><path d="m452 104.999h15v15h-15z"/></g></svg>