<svg id="Capa_1" enable-background="new 0 0 512 512" height="512" viewBox="0 0 512 512" width="512" xmlns="http://www.w3.org/2000/svg"><g><path d="m248.5 124.06h15v15h-15z" transform="matrix(.707 -.707 .707 .707 -18.054 219.527)"/><path d="m431.5 324.508h-46.295l-8.689-23.873-14.096 5.13 44.475 122.191-21.145 7.695c-11.657 4.247-24.595-1.79-28.838-13.447l-79.616-218.743c15.399-4.569 28.741-13.954 38.276-26.41l41.716 114.615 14.096-5.13-46.029-126.464c3.63-8.796 5.645-18.422 5.645-28.513 0-30.692-18.539-57.122-45-68.719v-40.34c0-12.407-10.094-22.5-22.5-22.5h-15c-12.406 0-22.5 10.093-22.5 22.5v40.347c-6.003 2.617-11.676 6.008-16.828 10.131l9.373 11.711c10.732-8.589 23.684-13.129 37.455-13.129 33.084 0 60 26.916 60 60s-26.916 60-60 60-60-26.916-60-60c0-13.77 4.539-26.72 13.125-37.45l-11.711-9.372c-10.585 13.226-16.414 29.854-16.414 46.822 0 10.091 2.016 19.717 5.645 28.513l-59.849 164.436h-46.296v15h40.837l-35.455 97.413 17.111 6.228v45.144h15v23.706h15v-23.707h15v-39.044c9.506-3.849 17.415-11.542 21.19-21.915l31.966-87.826h17.35v-15h-11.891l43.035-118.237c2.098.177 4.214.289 6.356.289s4.259-.112 6.356-.289l43.035 118.237h-26.89v-7.5c0-12.406-10.094-22.5-22.5-22.5s-22.5 10.093-22.5 22.5v30c0 12.407 10.094 22.5 22.5 22.5s22.5-10.093 22.5-22.5v-7.5h32.35l31.966 87.827c3.776 10.373 11.684 18.067 21.19 21.916v39.043h15v23.706h15v-23.707h15v-45.143l17.112-6.229-35.455-97.413h40.837zm-190.5-266.411v-35.597c0-4.136 3.364-7.5 7.5-7.5h15c4.136 0 7.5 3.364 7.5 7.5v35.569c-4.848-.988-9.864-1.509-15-1.509-5.058 0-10.083.529-15 1.537zm-123.007 415.196v-24.684l3.126 1.138c3.918 1.426 7.92 2.147 11.874 2.244v21.302zm37.095-51.089c-4.243 11.658-17.185 17.691-28.838 13.447l-21.144-7.695 91.322-250.904c9.535 12.456 22.876 21.84 38.276 26.41zm108.412-75.196c0 4.136-3.364 7.5-7.5 7.5s-7.5-3.364-7.5-7.5v-30c0-4.135 3.364-7.5 7.5-7.5s7.5 3.364 7.5 7.5zm130.507 126.285h-15v-21.302c3.954-.097 7.957-.818 11.874-2.244l3.126-1.138z"/><path d="m263.501 94.06v15h14.999v15h15.001v-15h-15v-15z"/></g></svg>