<svg id="Capa_1" enable-background="new 0 0 512 512" height="512" viewBox="0 0 512 512" width="512" xmlns="http://www.w3.org/2000/svg"><g><path d="m0 36.183v74.999h15v-59.999h482v329.999h-60v15h75v-359.999z"/><path d="m256 321.183c28.949 0 52.5-23.551 52.5-52.5s-23.551-52.5-52.5-52.5-52.5 23.551-52.5 52.5 23.551 52.5 52.5 52.5zm0-90c20.678 0 37.5 16.822 37.5 37.5s-16.822 37.5-37.5 37.5-37.5-16.822-37.5-37.5 16.822-37.5 37.5-37.5z"/><path d="m308.5 366.182h143.5v-7.5c0-12.407 10.094-22.5 22.5-22.5h7.5v-239.999h-7.5c-12.407 0-22.5-10.094-22.5-22.5v-7.5h-392v7.5c0 12.407-10.094 22.5-22.5 22.5h-7.5v239.999h7.5c12.407 0 22.5 10.094 22.5 22.5v7.5h143.5v15h-188.5v-255.001h-15v270.001h203.5v79.635l52.5-26.25 52.5 26.249v-79.634h113.501v-15h-113.501zm-234.253-15c-2.991-14.671-14.576-26.256-29.247-29.247v-211.506c14.671-2.991 26.256-14.576 29.247-29.247h363.506c2.991 14.671 14.576 26.256 29.247 29.247v211.506c-14.671 2.991-26.256 14.576-29.247 29.247h-129.253v-18.908c18.312-15.144 30-38.028 30-63.592 0-45.491-37.009-82.5-82.5-82.5-18.996 0-37.542 6.617-52.221 18.632l9.501 11.607c12.006-9.828 27.178-15.24 42.72-15.24 37.22 0 67.5 30.28 67.5 67.5s-30.28 67.5-67.5 67.5-67.5-30.28-67.5-67.5c0-15.543 5.412-30.715 15.24-42.72l-11.606-9.502c-12.016 14.678-18.633 33.224-18.633 52.222 0 25.564 11.688 48.448 30 63.592v18.908h-129.254zm144.253-9.052c4.753 2.437 9.77 4.423 15 5.908v96.009l-15 7.5zm60 101.917v-32.866h-15v25.366l-7.501-3.75-7.5 3.75v-85.721c2.472.224 4.971.356 7.5.356s5.028-.132 7.5-.356v15.356h15v-18.144c5.229-1.485 10.246-3.471 15-5.908v109.417z"/><path d="m106 141.181h269.999v15h-269.999z"/><path d="m218.5 111.182h75v15h-75z"/><path d="m390.999 141.181h15.001v15h-15.001z"/><path d="m263.5 381.181h15v15h-15z"/><path d="m30 351.183h15v15h-15z"/><path d="m467 66.182h15v15h-15z"/><path d="m256 253.683h15v15h-15z"/><path d="m467 351.182h15v15h-15z"/><path d="m437 126.182h15v15h-15z"/><path d="m30 66.182h15v15h-15z"/><path d="m437 156.182h15v45h-15z"/></g></svg>