<svg id="Capa_1" enable-background="new 0 0 512 512" height="512" viewBox="0 0 512 512" width="512" xmlns="http://www.w3.org/2000/svg"><g><path d="m395.705 349.706c45.33-45.331 70.295-105.6 70.295-169.706s-24.965-124.375-70.295-169.706l-5.303-5.303-42.602 42.603c-32.077-29.531-74.866-47.594-121.8-47.594-67.786 0-129.163 37.48-160.179 97.814l13.34 6.857c8.504-16.541 19.511-31.191 32.406-43.626l39.549 69.748 56.303-3.043 39.012 48.427-10.768 69.211 42.001 25.201 33.205-86.964 38.874-7.524 38.715 32.827c-13.714 77.236-81.343 136.072-162.458 136.072-23.338 0-45.553-4.881-65.696-13.658l33.398-47.601-8.429-37.181-69.626-24.117-8.18-10.472 16.86-51.945-63.081 11.01c.981-18.388 4.976-36.289 11.929-53.328l-13.889-5.667c-8.815 21.604-13.286 44.469-13.286 67.959 0 46.934 18.063 89.723 47.594 121.799l-42.602 42.603 5.304 5.303c38.84 38.84 88.652 62.711 142.445 68.755l-8.543 18.54h-61.698c-12.406 0-22.5 10.093-22.5 22.5v52.5h157.501v-15h-142.501v-37.5c0-4.136 3.364-7.5 7.5-7.5h195c4.136 0 7.5 3.364 7.5 7.5v37.5h-52.499v15h67.499v-52.5c0-12.407-10.094-22.5-22.5-22.5h-61.698l-8.542-18.539c53.793-6.044 103.605-29.915 142.445-68.755zm-41.749-189.699-54.126 10.476-29.795 78.036-17.999-10.799 10.235-65.789-47.991-59.573-54.697 2.957-36.506-64.38c28.675-22.904 64.681-35.935 102.923-35.935 90.981 0 165 74.019 165 165 0 3.729-.137 7.425-.381 11.093zm-247.404 75.159 65.937 22.839 5.114 22.565-30.923 44.074c-49.301-27.144-83.305-78.757-85.549-138.363l41.24-7.198-11.632 35.838zm-2.352 77.24c32.077 29.531 74.866 47.594 121.8 47.594 99.252 0 180-80.748 180-180 0-46.934-18.063-89.723-47.594-121.799l10.682-10.682c70.78 76.379 69.05 196.115-5.202 270.368-74.254 74.252-193.989 75.983-270.368 5.202zm-21.296 21.296c82.234 76.632 211.481 74.894 291.589-5.209 80.104-80.105 81.842-209.354 5.209-291.588l10.614-10.614c39.193 41.826 60.684 96.115 60.684 153.709 0 60.1-23.404 116.602-65.9 159.099-85.957 85.955-224.72 87.697-312.809 5.216zm162.383 103.298h-38.573l7.956-17.268c3.762.174 7.539.268 11.33.268s7.568-.094 11.33-.268z"/><path d="m301.001 467h15v15h-15z"/><path d="m203.5 37.5h15v15h-15z"/><path d="m307.083 59.139c-21.272-14.359-46.029-21.639-73.583-21.639v15c47.815 0 86.644 25.234 106.528 69.231l13.668-6.178c-10.615-23.488-26.734-42.996-46.613-56.414z"/></g></svg>