<svg id="Capa_1" enable-background="new 0 0 512 512" height="512" viewBox="0 0 512 512" width="512" xmlns="http://www.w3.org/2000/svg"><g><path d="m512 151h-15v-30h-15v-15h15v-45h-15v-30h-135v45h15v15h-15v45h15v15h-46v-96.781c0-12.406-10.093-22.5-22.5-22.5h-97.5v15h97.5c4.135 0 7.5 3.364 7.5 7.5v96.781h-165v-96.781c0-4.136 3.364-7.5 7.5-7.5h37.5v-15h-37.5c-12.406 0-22.5 10.094-22.5 22.5v96.781h-24.791c.833-2.347 1.29-4.871 1.29-7.5v-52.5h-15v-22.5h-15v22.5h-15v-37.5h-15v37.5h-15v52.5c0 2.629.458 5.153 1.29 7.5h-23.789v75h15v45h15v-45h15v240h-15v-180.001h-15v195.001h45v-90h136v45h-60v30h-15v15h45v-15h-15v-15h135v15h-15v15h45v-15h-15v-30h-60v-45.001h211v90h45v-59.999h-15v45h-15v-240h15v180h15v-180h15zm-150-105h105v15h-105zm120 30v15h-105v-15zm-105 60h30v-15h-45v-15h7.5 97.5v15h-45v15h52.5 7.5v15h-105zm-339.5 7.5v-37.5h45v37.5c0 4.136-3.364 7.5-7.5 7.5h-30c-4.136 0-7.5-3.365-7.5-7.5zm188.5 292.5h-15v-45.001h15zm226-60.001h-392v-149.999h392zm45-164.999h-482v-45h482z"/><path d="m248.5 330.28v-15h-75v-44.281h165v44.281h-75v15h90v-74.281h-195v74.281z"/><path d="m248.5 285.28h15v15h-15z"/><path d="m278.5 285.28h15v15h-15z"/><path d="m218.501 285.28h15v15h-15z"/><path d="m467 180.999h15v15h-15z"/><path d="m407 180.999h45v15h-45z"/><path d="m271.001 61.718h15v15h-15z"/></g></svg>