<svg id="Capa_1" enable-background="new 0 0 512 512" height="512" viewBox="0 0 512 512" width="512" xmlns="http://www.w3.org/2000/svg"><g><path d="m397.79 328.31-37.389-3.68-32.039-9.461v-41.844l34.064-34.063v-21.872l14.404-5.635c6.417-2.51 19.768-7.732 19.768-21.984v-38.344c0-12.406-10.094-22.5-22.5-22.5h-11.672v-76.427c0-28.949-23.551-52.5-52.5-52.5h-107.853c-14.465 0-26.235 9.662-29.25 22.976-13.466 2.961-23.25 14.651-23.25 29.023v15h15v-14.999c0-8.409 6.448-14.75 15-14.75h7.5v-7.5c0-8.409 6.449-14.75 15-14.75h107.854c20.677 0 37.5 16.822 37.5 37.5v59.292l-128.636-32.549-54.217 29.553v-26.797h-15v46.927h-11.672c-12.406 0-22.5 10.093-22.5 22.5v38.344c0 14.252 13.351 19.475 19.767 21.984l14.405 5.635v21.872l34.064 34.063v41.844l-32.039 9.461-37.389 3.68c-49.734 4.896-85.832 41.287-85.832 86.531v97.16h402.744v-15h-27.832v-63.638h-15v63.638h-116.245l128.159-153.302c39.876 5.548 68.417 34.941 68.417 71.142v82.16h-22.5v15h37.5v-97.16c.001-45.243-36.097-81.635-85.831-86.53zm-192.87 76.898 51.08-44.489 51.08 44.488 55.07-65.334 20.051 1.974-126.201 150.96-126.201-150.96 20.051-1.974zm140.907-69.242-40.391 47.919-35.781-31.164 51.791-23.954zm1.599-154.54c0 12.407-10.093 22.5-22.5 22.5h-23.926c-12.406 0-22.5-10.093-22.5-22.5v-22.5h68.926zm26.672-37.5c4.136 0 7.5 3.364 7.5 7.5v38.344c0 2.542-1.674 4.668-10.232 8.016l-8.939 3.497v-57.356h11.671zm-153.289-48.699 126.617 32.039v16.661h-182.852v-18.047zm-56.235 63.699h68.926v22.5c0 12.407-10.093 22.5-22.5 22.5h-23.927c-12.407 0-22.5-10.093-22.5-22.5v-22.5zm-23.94 38.86c-8.558-3.348-10.232-5.474-10.232-8.016v-38.344c0-4.135 3.364-7.5 7.5-7.5h11.672v57.357zm23.94 13.619c6.272 4.719 14.064 7.52 22.5 7.52h23.926c20.677 0 37.5-16.822 37.5-37.5v-22.5h15v22.5c0 20.678 16.822 37.5 37.5 37.5h23.927c8.436 0 16.228-2.801 22.5-7.52v21.643l-57.728 57.726h-67.396l-57.728-57.726v-21.643zm51.515 94.369h79.822l17.451-17.45v27.655l-57.362 26.531-57.362-26.531v-27.655zm-25.536 22.992 51.791 23.954-35.781 31.164-40.391-47.919zm-66.843 168.234v-63.638h-15v63.638h-65.332v-82.16c0-36.201 28.54-65.594 68.417-71.142l128.16 153.302z"/><path d="m248.5 389.993h15v15h-15z"/><path d="m248.5 419.993h15v15h-15z"/><path d="m232.25 238.274h47.5v15h-47.5z"/><path d="m248.5 449.993h15v15h-15z"/><path d="m305.463 173.926h15v15h-15z"/><path d="m191.537 173.926h15v15h-15z"/><path d="m453.622 414.84c0-25.333-17.116-47.762-41.623-54.542l-3.999 14.458c18.029 4.988 30.622 21.471 30.622 40.084z"/><path d="m438.622 429.84h15v15h-15z"/><path d="m302.427 30h15v15h-15z"/><path d="m272.427 30h15v15h-15z"/></g></svg>