<svg id="Capa_1" enable-background="new 0 0 512 512" height="512" viewBox="0 0 512 512" width="512" xmlns="http://www.w3.org/2000/svg"><g><path d="m488.5 467v-467h-465v67.5h15v-52.5h135v452h-135v-384.501h-15v384.501h-23.5v45h437.001v-15h-422.001v-15h482v15h-45v15h60v-45zm-15-452v452h-135v-452zm-285 0h135v452h-135z"/><path d="m293.501 407.001h-75.001v-15h-15v30h105.001v-30h-15z"/><path d="m458.501 347.001h-15v15h-75.001v-15h-15v30h105.001z"/><path d="m293.501 82.499h-75.001v-14.999h-15v29.999h105.001v-29.999h-15z"/><path d="m293.501 362.001h-75.001v-15h-15v30h105.001v-30h-15z"/><path d="m293.501 127.499h-75.001v-15h-15v30h105.001v-30h-15z"/><path d="m53.5 142.499h105v-30h-15v15h-75v-15h-15z"/><path d="m458.501 392.001h-15v15h-75.001v-15h-15v30h105.001z"/><path d="m53.5 422.001h105v-30h-15v15h-75v-15h-15z"/><path d="m53.5 67.5v29.999h105v-29.999h-15v14.999h-75v-14.999z"/><path d="m53.5 377.001h105v-30h-15v15h-75v-15h-15z"/><path d="m458.501 67.5h-15v14.999h-75.001v-14.999h-15v29.999h105.001z"/><path d="m458.501 112.499h-15v15h-75.001v-15h-15v30h105.001z"/><path d="m376 293.5c12.406 0 22.499-10.093 22.499-22.5v-82.5h-44.999v82.5c0 12.407 10.094 22.5 22.5 22.5zm-7.5-90h14.999v67.5c0 4.136-3.364 7.5-7.499 7.5-4.136 0-7.5-3.364-7.5-7.5z"/><path d="m53.5 271c0 12.407 10.094 22.5 22.5 22.5s22.5-10.093 22.5-22.5v-82.5h-45zm15-67.5h15v67.5c0 4.136-3.364 7.5-7.5 7.5s-7.5-3.364-7.5-7.5z"/><path d="m226 293.5c12.407 0 22.5-10.093 22.5-22.5v-82.5h-45v82.5c0 12.407 10.093 22.5 22.5 22.5zm-7.5-90h15v67.5c0 4.136-3.364 7.5-7.5 7.5s-7.5-3.364-7.5-7.5z"/><path d="m413.5 30h15v15h-15z"/><path d="m143.5 30h15v15h-15z"/><path d="m443.501 30h15v15h-15z"/><path d="m113.5 30h15v15h-15z"/><path d="m263.5 30h15v15h-15z"/><path d="m293.5 30h15.001v15h-15.001z"/></g></svg>