<svg id="Capa_1" enable-background="new 0 0 512 512" height="512" viewBox="0 0 512 512" width="512" xmlns="http://www.w3.org/2000/svg"><g><path d="m474.5 4.285c-12.242 0-23.131 5.898-29.98 15h-23.52v-15h-75v15h-180v-15h-75v15h-23.52c-6.849-9.102-17.738-15-29.98-15-20.678 0-37.5 16.822-37.5 37.5s16.822 37.5 37.5 37.5c12.242 0 23.131-5.898 29.98-15h23.52v165.853h15v-75.853h300v169.219l-150 62.946-150-62.946v-78.367h-15v193.338l165 69.24 74.734-31.361-5.805-13.831-68.929 28.925-150-62.946v-51.232l150 62.945 150-62.945v51.232l-67.235 28.214 5.805 13.831 76.43-32.072v-374.19h23.52c6.849 9.102 17.738 15 29.98 15 20.678 0 37.5-16.822 37.5-37.5s-16.822-37.5-37.5-37.5zm-437 60c-12.406 0-22.5-10.093-22.5-22.5s10.094-22.5 22.5-22.5c12.407 0 22.501 10.093 22.501 22.5s-10.094 22.5-22.501 22.5zm36.746-15c.494-2.424.755-4.932.755-7.5s-.26-5.076-.755-7.5h16.754v15zm91.754 15h180v15h-180zm180-30v15h-180v-15zm-240 105v-120h45v75h210v-75h45v120zm150 284.664-150-62.946v-21.233l150 62.945 150-62.945v21.233zm165-374.664v-15h16.754c-.494 2.424-.755 4.932-.755 7.5s.26 5.076.755 7.5zm53.5 15c-12.407 0-22.501-10.093-22.501-22.5s10.094-22.5 22.501-22.5c12.406 0 22.5 10.093 22.5 22.5s-10.094 22.5-22.5 22.5z"/><path d="m346.001 304.284v-120h-61.771l-28.23 14.114-28.229-14.114h-61.771v120h58.23l31.77 15.885 31.771-15.884h58.23zm-165.002-15v-90h43.23l24.271 12.135v18.574l-20.729-10.364h-31.771v15h28.23l24.271 12.135v17.542l-20.729-10.364h-31.771v15h28.23l24.271 12.135v18.574l-20.729-10.364h-46.774zm82.501 10.364v-18.574l24.271-12.135h28.23v-15h-31.771l-20.73 10.365v-17.542l24.271-12.135h28.23v-15h-31.771l-20.73 10.365v-18.574l24.271-12.135h43.23v90h-46.771z"/><path d="m233.5 334.283h15v15h-15z"/><path d="m263.5 334.283h15v15h-15z"/><path d="m376 169.284h15v15h-15z"/><path d="m121 34.285h15v15h-15z"/><path d="m376 34.285h15v15h-15z"/><path d="m376 199.284h15v45h-15z"/></g></svg>