<svg id="Capa_1" enable-background="new 0 0 512 512" height="512" viewBox="0 0 512 512" width="512" xmlns="http://www.w3.org/2000/svg"><g><path d="m512 181.5c0-12.406-10.094-22.499-22.5-22.499h-61v-55.607l-19.394-19.393h-25.606v-46h-187.5v15h172.5v106h-270v-49.395l10.606-10.605h19.394v45h15v-91h37.5v-15h-52.5v46h-25.606l-19.394 19.393v55.607h-61c-12.406 0-22.5 10.093-22.5 22.499v217.501h128.5v74.998h187.5v-15h-172.5v-119.998h225v119.998h-37.5v15h52.5v-74.998h128.5zm-128.5-82.499h19.394l10.606 10.605v49.395h-30zm-361 75h467c4.136 0 7.5 3.364 7.5 7.499v37.5h-272.757c-3.484-17.096-18.635-30-36.745-30-18.109 0-33.261 12.904-36.745 30h-16.508c-3.484-17.096-18.635-30-36.745-30-18.109 0-33.261 12.904-36.745 30h-45.755v-37.5c0-4.135 3.364-7.499 7.5-7.499zm187.498 52.499c0 12.406-10.093 22.5-22.5 22.5-12.406 0-22.5-10.094-22.5-22.5s10.093-22.5 22.5-22.5 22.5 10.094 22.5 22.5zm-89.998 0c0 12.406-10.093 22.5-22.5 22.5s-22.5-10.094-22.5-22.5 10.093-22.5 22.5-22.5 22.5 10.094 22.5 22.5zm-6.5 97.501v15h15v15h-30v-45h315v45h-30v-15h15v-15zm270 60v-15h45v-75h-345v75h45v15h-113.5v-150.001h45.754c3.484 17.096 18.636 30 36.745 30 18.11 0 33.261-12.904 36.745-30h16.508c3.484 17.096 18.635 30 36.745 30s33.261-12.904 36.745-30h272.758v150.001z"/><path d="m211 361.501h112.5v15h-112.5z"/><path d="m188.5 421.5h134.999v15h-134.999z"/><path d="m263.5 391.5h60v15h-60z"/><path d="m188.5 391.5h60v15h-60z"/><path d="m338.5 98h15v15.001h-15z"/><path d="m437 248.999h15v15h-15z"/><path d="m338.5 68h15v15h-15z"/><path d="m467 248.999h15v15h-15z"/></g></svg>