<svg id="Capa_1" enable-background="new 0 0 512 512" height="512" viewBox="0 0 512 512" width="512" xmlns="http://www.w3.org/2000/svg"><g><path d="m400.989 375.854-44.556-14.832-41.364-20.654-5.794-26.76 42.725-33.986v-28.362h15c12.406 0 22.5-10.094 22.5-22.5v-29.238c0-9.777-6.271-18.114-15-21.21v-35.813c0-37.69-25.415-69.534-60-79.356v-25.56c0-20.724-16.859-37.583-37.583-37.583h-41.834c-20.724 0-37.583 16.859-37.583 37.583v25.536c-16.561 4.695-31.374 14.548-42.389 28.57l11.795 9.266c12.958-16.495 32.31-25.956 53.094-25.956h7.5v-15h-7.5c-2.52 0-5.021.118-7.5.342v-22.758c0-12.452 10.131-22.583 22.583-22.583h41.834c12.452 0 22.583 10.131 22.583 22.583v22.772c-2.472-.224-4.97-.356-7.5-.356h-49.5v15h49.5c37.22 0 67.5 30.28 67.5 67.5v34.522h-7.5-7.5-73.5c-35.471 0-51.379-21.042-71.601-53.145l-12.691 7.994c2.517 3.996 5.013 7.885 7.525 11.631l-30.08 33.52h-11.653v-34.522c0-10.575 2.411-20.722 7.168-30.157l-13.395-6.752c-5.821 11.55-8.773 23.968-8.773 36.909v35.813c-8.729 3.096-15 11.433-15 21.21v29.238c0 12.406 10.094 22.5 22.5 22.5h15v28.362l42.725 33.985-5.794 26.76-41.364 20.654-44.556 14.832c-14.913 4.965-60.295 20.071-60.295 62.28v73.867h275.569v-15h-185.57v-40.326h-15v40.326h-59.999v-58.866c0-21.418 15.898-36.686 50.033-48.048l39.67-13.206 48.667 71.81 44.414-43.958v17.268h15v-17.268l44.414 43.958 48.667-71.81 39.67 13.206c34.135 11.362 50.033 26.63 50.033 48.048v58.866h-59.999v-40.326h-15v40.326h-30v15h119.999v-73.866c0-42.209-45.382-57.316-60.295-62.28zm-33.989-183.833c4.136 0 7.5 3.364 7.5 7.5v29.238c0 4.136-3.364 7.5-7.5 7.5h-15v-44.238zm-163.834-36.014c16.588 21.512 35.772 36.015 67.834 36.015h66v15h-162v-19.628zm103.834 66.014v6.738c0 4.136-3.364 7.5-7.499 7.5h-13.501c-4.136 0-7.5-3.364-7.5-7.5v-6.738zm-73.5 0v6.738c0 4.136-3.364 7.5-7.5 7.5h-13.501c-4.135 0-7.499-3.364-7.499-7.5v-6.738zm-88.5 14.239c-4.136 0-7.5-3.364-7.5-7.5v-29.238c0-4.136 3.364-7.5 7.5-7.5h15v44.238zm30-14.239h15v6.738c0 12.406 10.093 22.5 22.499 22.5h13.501c12.406 0 22.5-10.094 22.5-22.5v-6.738h15v6.738c0 12.406 10.094 22.5 22.5 22.5h13.501c12.406 0 22.499-10.094 22.499-22.5v-6.738h15v50.366l-61.119 48.616h-39.762l-61.119-48.615zm55.881 113.983h50.238l15.064-11.982 3.995 18.45-44.178 34.745-44.178-34.744 3.995-18.451zm-24.51 89.321-36.917-54.472 33.144-16.551 42.089 33.1zm99.258 0-38.316-37.923 42.089-33.1 33.144 16.551z"/><path d="m237.25 275.691h37.5v15h-37.5z"/><path d="m248.5 467h15v15h-15z"/><path d="m248.5 437h15v15h-15z"/><path d="m261.917 30h15v15h-15z"/><path d="m262 89.999h15v15h-15z"/><path d="m344.5 142.499c0-28.948-23.552-52.5-52.5-52.5v15c20.678 0 37.5 16.822 37.5 37.5z"/></g></svg>