<svg id="Capa_1" enable-background="new 0 0 512 512" height="512" viewBox="0 0 512 512" width="512" xmlns="http://www.w3.org/2000/svg"><g><path d="m512 283.361c0-10.509-7.244-19.356-17-21.817l-63.842-175.405-83.162 30.269c-11.658 4.242-17.691 17.18-13.449 28.839 2.051 5.632 6.186 10.135 11.643 12.68 5.456 2.546 11.563 2.817 17.196.768l40.119-14.603 29.444 116.77h-139.45c-12.406 0-22.499 10.094-22.499 22.5v7.499h-30v-7.499c0-12.406-10.093-22.5-22.499-22.5h-139.45l29.445-116.77 40.118 14.603c11.654 4.239 24.596-1.788 28.839-13.448 4.242-11.659-1.79-24.596-13.447-28.838l-83.163-30.27-31.412 86.303 14.096 5.131 26.281-72.209 69.068 25.14c3.886 1.414 5.896 5.727 4.481 9.612-1.414 3.887-5.726 5.9-9.612 4.482l-55.731-20.284-34.433 136.547h-30.369l25.182-69.189-14.096-5.131-27.298 75.003c-9.756 2.46-17 11.307-17 21.817v52.499h15v52.501c0 20.678 16.822 37.5 37.5 37.5h106.001c37.22 0 67.5-30.28 67.5-67.5v-22.501h14.999v-30h30v30h14.999v22.501c0 37.22 30.28 67.5 67.5 67.5h53.501v-15h-53.501c-28.948 0-52.5-23.552-52.5-52.5v-22.501h15.001v-29.999h151v29.999h15v52.501c0 12.406-10.094 22.5-22.5 22.5h-37.499v15h37.499c20.678 0 37.5-16.822 37.5-37.5v-52.501h15zm-497 0c0-4.136 3.364-7.5 7.5-7.5h196.001c4.135 0 7.499 3.364 7.499 7.5v37.499h-15v-29.999h-181v29.999h-15zm196.001 75c0 28.948-23.552 52.5-52.5 52.5h-106.001c-12.406 0-22.5-10.094-22.5-22.5v-52.501h15v-29.999h151v29.999h15.001zm202.986-234.047-55.732 20.285c-1.867.678-3.901.584-5.727-.267-1.826-.853-3.206-2.35-3.886-4.216-1.414-3.887.597-8.199 4.483-9.613l69.067-25.14 56.595 155.497h-30.37zm83.013 196.546h-15v-29.999h-181v29.999h-15v-37.499c0-4.136 3.364-7.5 7.499-7.5h196.001c4.136 0 7.5 3.364 7.5 7.5z"/><path d="m437 320.86h15v15h-15z"/><path d="m52.421 380.861h15v15h-15z"/></g></svg>