<svg id="Capa_1" enable-background="new 0 0 512 512" height="512" viewBox="0 0 512 512" width="512" xmlns="http://www.w3.org/2000/svg"><g><path d="m150.999 0v15h307.501v482h-52.499v15h67.499v-512z"/><path d="m83.5 489.5v-23.501h30v-45h-30v-30h30v-45h-30v-29.999h30v-45h-30v-30h30v-45h-30v-29.999h30v-45h-30v-30h30v-45h-30v-23.501c0-4.136 3.364-7.5 7.5-7.5h45v-15h-45c-12.406 0-22.5 10.094-22.5 22.5v23.501h-30v45h30v30h-30v45h30v29.999h-30v45h30v30h-30v45h30v29.999h-30v45h30v30h-30v45h30v23.501c0 12.406 10.094 22.5 22.5 22.5h300.001v-15h-300.001c-4.136 0-7.5-3.364-7.5-7.5zm-30-428.499h45v15h-45zm0 75h45v15h-45zm0 74.999h45v15h-45zm0 75h45v15h-45zm0 74.999h45v15h-45zm0 75h45v15h-45z"/><path d="m151 406.001h255v-315.001h-255zm15-60h45.001v45h-45.001zm180-75v-45.001h45v45.001zm45 15v45h-45v-45zm-45-75.001v-45h45v45zm-75 15v15.001h15v-15.001h45v45.001h-45v-15h-15v15h-44.999v-45.001zm-44.999-15v-45h44.999v45zm59.999 0v-45h45v45zm45 75.001v45h-45v-45zm-60 0v45h-44.999v-45zm15 60h45v45h-45zm0-195.001v-45h45v45zm-15 0h-44.999v-45h44.999zm0 195.001v45h-44.999v-45zm-59.999-135.001h-45.001v-45h45.001zm0 15v45.001h-45.001v-45.001zm0 60.001v45h-45.001v-45zm134.999 105v-45h45v45zm45-240.001h-45v-45h45zm-179.999-45v45h-45.001v-45z"/><path d="m226 53.501h15v15h-15z"/><path d="m151 53.501h60v15h-60z"/><path d="m293.5 428.5h112.5v15h-112.5z"/><path d="m368.501 30h45v15h-45z"/><path d="m428.501 30h15v15h-15z"/><path d="m128.5 467h15v15h-15z"/></g></svg>