<svg id="Capa_1" enable-background="new 0 0 512 512" height="512" viewBox="0 0 512 512" width="512" xmlns="http://www.w3.org/2000/svg"><g><path d="m512 385.447v-45h-199.567c20.715-12.2 37.605-31.525 48.975-56.854 10.102-22.502 14.778-48.209 13.171-72.385-1.698-25.545-9.984-47.354-23.962-63.068-20.291-22.814-50.968-30.304-87.117-21.527v-11.994c20.993-9.495 34.283-29.601 34.283-52.584 0-24.763-15.423-46.196-39.291-54.604l-2.492-.878-2.492.877c-23.868 8.408-39.291 29.842-39.291 54.604 0 22.983 13.291 43.09 34.283 52.584v12.004c-45.39-11.064-81.458 3.43-99.834 40.636l13.449 6.643c15.619-31.625 46.18-42.792 86.385-31.792v16.878h15v-16.883c32.468-8.894 58.64-3.412 75.909 16.003 23.832 26.795 27.329 76.985 8.315 119.343-17.972 40.035-51.399 62.997-91.712 62.997h-.012c-40.421 0-65.021-21.895-78.541-40.262-23.437-31.839-31.651-77.431-20.441-113.447l-14.322-4.457c-12.558 40.348-3.441 91.304 22.684 126.797 9.669 13.135 21.302 23.676 34.394 31.369h-177.274c-12.406 0-22.5 10.094-22.5 22.5v120c0 12.406 10.094 22.5 22.5 22.5h414.501v-15h-302.002v-15h362.001v15h-45v15h60v-45h-22.5v-75zm-282.783-323.413c0-13.997 7.096-31.416 26.783-39.507 19.688 8.091 26.783 25.51 26.783 39.507 0 12.047-5.265 26.624-19.283 35.611v-45.658h-15v45.658c-14.018-8.987-19.283-23.563-19.283-35.611zm-214.217 420.913v-120c0-4.136 3.364-7.5 7.5-7.5h474.5v15h-467v105h30v15h-37.5c-4.136 0-7.5-3.364-7.5-7.5zm45-22.5h-15v-15h15zm15 30v-45h44.999v45zm399.5-89.999h-309.501v15h309.501v14.999h-132.251v15h132.251v15h-339.501v-15h192.25v-15h-282.249v-14.999h104.999v-15h-104.999v-15.001h429.5z"/><path d="m327.541 177.724c-8.02-14.077-20.431-22.49-35.89-24.33l-1.773 14.895c30.845 3.671 32.407 42.644 32.407 50.419h15c0-15.399-3.461-29.954-9.744-40.984z"/><path d="m322.285 233.707h15v15h-15z"/></g></svg>