<svg id="Capa_1" enable-background="new 0 0 512 512" height="512" viewBox="0 0 512 512" width="512" xmlns="http://www.w3.org/2000/svg"><g><path d="m427.739 437v-15c12.406 0 22.5-10.094 22.5-22.5v-45c0-12.406-10.094-22.5-22.5-22.5v-48.233h-15v-15.088c0-19.734-15.873-35.846-36.92-37.478l-77.94-6.042 43.88-35.467v-27.582h7.5c12.406 0 22.5-10.093 22.5-22.499v-21.112c0-12.406-10.093-22.5-22.5-22.5l-7.5.001v-43.5c0-28.948-23.551-52.5-52.5-52.5h-44.019c-14.201 0-25.804 9.313-29.076 22.25h-15.924c-16.822 0-30 13.067-30 29.75v7.5h15v-7.5c0-8.409 6.448-14.75 15-14.75h30v-7.5c0-8.409 6.448-14.75 15-14.75h44.019c20.677 0 37.5 16.822 37.5 37.5v43.506c-29.761.007-68.761-.843-91.978-24.06l-3.939-3.939-45.601 24.459v-17.967h-15v23h-7.5c-12.407 0-22.5 10.094-22.5 22.5v21.111c0 12.406 10.093 22.5 22.5 22.5h7.5v26.081l43.88 35.467-77.94 6.042c-21.048 1.632-36.92 17.743-36.92 37.478v15.088h-15v48.234c-12.406 0-22.5 10.094-22.5 22.5v45c0 12.406 10.094 22.5 22.5 22.5v15h-54.261v75h377.001v-15h-362.001v-45h422v45h-45v15h60v-75zm7.5-82.5v45c0 4.136-3.364 7.5-7.5 7.5h-22.5c-4.135 0-7.5-3.364-7.5-7.5v-45c0-4.136 3.364-7.5 7.5-7.5h22.5c4.136 0 7.5 3.364 7.5 7.5zm-30-22.5c-12.406 0-22.5 10.094-22.5 22.5v45c0 12.406 10.093 22.5 22.5 22.5h7.5v15h-149.239v-113.234l18.75-24.999h130.489v33.233zm-55.98-221.001c4.135 0 7.5 3.364 7.5 7.5v21.112c0 4.135-3.364 7.499-7.5 7.499h-7.5v-36.11zm-186.518 37.611c-4.136 0-7.5-3.364-7.5-7.5v-21.111c0-4.136 3.364-7.5 7.5-7.5h7.5v36.111zm22.5-39.123 43.062-23.097c27.535 23.784 67.65 24.641 98.456 24.618v71.521l-50.911 41.149h-39.696l-50.911-41.149zm83.653 129.192-3.75 15h-18.288l-3.75-15zm-154.633 30c0-11.82 9.922-21.503 23.08-22.522l90.421-7.01 7.383 29.533h41.711l7.384-29.533 90.421 7.01c13.158 1.02 23.08 10.702 23.08 22.522v15.088h-122.991l-18.75 24.999-18.75-24.999h-122.989zm-37.5 130.821v-45c0-4.136 3.364-7.5 7.5-7.5h22.5c4.135 0 7.5 3.364 7.5 7.5v45c0 4.136-3.364 7.5-7.5 7.5h-22.5c-4.136 0-7.5-3.364-7.5-7.5zm22.5 22.5h7.5c12.406 0 22.5-10.094 22.5-22.5v-45c0-12.406-10.093-22.5-22.5-22.5h-7.5v-33.233h130.489l18.75 24.999v113.234h-149.239z"/><path d="m213.675 141.805h15v15h-15z"/><path d="m282.834 141.805h15v15h-15z"/><path d="m237.25 182.493h37.5v15h-37.5z"/><path d="m144.26 354.5h45v15h-45z"/><path d="m352.74 354.5h15v15h-15z"/><path d="m322.74 384.5h45v15h-45z"/><path d="m292.74 354.5h45v15h-45z"/><path d="m292.74 384.5h15v15h-15z"/><path d="m174.261 384.5h45v15h-45z"/><path d="m204.26 354.5h15v15h-15z"/><path d="m144.26 384.5h15v15h-15z"/><path d="m311.759 60v-7.5c0-12.406-10.093-22.5-22.5-22.5h-7.5v15h7.5c4.065 0 7.5 3.435 7.5 7.5v7.5z"/><path d="m60 466.999h15v15.001h-15z"/><path d="m251.759 30h15v15h-15z"/></g></svg>