<svg id="Capa_1" enable-background="new 0 0 512.002 512.002" height="512" viewBox="0 0 512.002 512.002" width="512"
     xmlns="http://www.w3.org/2000/svg" fill="#045b6e">
  <g>
    <path
      d="m499.96 318.786c-9.332-9.332-25.356-12.162-39.995-1.478-5.4-3.872-11.903-6.123-18.647-6.326-9.237-.26-18.269 3.294-24.776 9.801l-55.643 55.644c4.838-6.53 7.306-14.292 7.007-22.308l-.811-21.678-157.477-15.861-62.52 62.52-15.91-15.909-35.149 35.149 10.609 10.609-102.944 103.053 177.293-.004 14.35-14.351 7.794 7.794 35.149-35.149-12.136-12.136 190.887-14.211 79.767-79.766c15.935-15.935 13.648-34.898 3.152-45.393zm-72.812 12.604c3.648-3.648 8.544-5.558 13.718-5.414 2.75.083 5.367.755 7.736 1.927l-48.997 48.996h-17.965zm-252.364 165.608-134.894.004 77.365-77.446 67.486 67.485zm28.357-12.769-85.89-85.889 13.937-13.937 85.89 85.889zm283.061-130.656-75.828 75.827-198.218 14.757-54.451-54.451 57.489-57.489 137.4 13.84.322 8.623c.207 5.512-1.926 10.879-6.004 15.112-4.302 4.466-10.229 7.049-16.293 7.106h-82.584v15h82.376v.001c.09 0 .18 0 .271-.001h75.137l59.354-59.353c9.439-9.441 18.948-8.389 24.181-3.153 5.234 5.234 6.288 14.741-3.152 24.181z"/>
    <path
      d="m370.801 297.496h32.71c12.406 0 22.5-10.093 22.5-22.499v-15.751h16.001c12.406 0 22.499-10.094 22.499-22.5v-7.5h-15v7.5c0 4.136-3.364 7.5-7.499 7.5h-47.002v15h16v15.751c0 4.135-3.364 7.499-7.5 7.499h-32.71c-4.136 0-7.5-3.364-7.5-7.499v-98.25h18.711c4.136 0 7.5 3.364 7.5 7.499v15h15v-15c0-12.406-10.094-22.499-22.5-22.499h-18.711v-79.787c2.347.833 4.871 1.29 7.5 1.29h22.5v-15h-22.499c-4.136 0-7.5-3.364-7.5-7.5v-38.25c0-4.136 3.364-7.5 7.5-7.5h32.71c4.136 0 7.5 3.364 7.5 7.5v53.25h15v-14.999h16.001c4.135 0 7.499 3.364 7.499 7.499v39.248h-29.999v15h52.499c4.136 0 7.5 3.364 7.5 7.5v45.001c0 4.135-3.364 7.499-7.5 7.499h-22.5v31.748h15v-16.748h7.5c12.406 0 22.5-10.093 22.5-22.499v-45.001c0-12.406-10.094-22.5-22.5-22.5h-7.5v-39.248c0-12.406-10.093-22.499-22.499-22.499h-16.002v-23.251c0-12.406-10.094-22.5-22.5-22.5h-32.71c-12.406 0-22.5 10.094-22.5 22.5v252.497c.001 12.406 10.094 22.499 22.501 22.499z"/>
    <path
      d="m209.591 197.498h7.5v39.248c0 12.406 10.093 22.5 22.5 22.5h16v15.751c0 12.406 10.094 22.499 22.5 22.499h32.711c12.406 0 22.499-10.093 22.499-22.499v-252.497c0-12.406-10.093-22.5-22.499-22.5h-32.711c-12.406 0-22.5 10.094-22.5 22.5v23.251h-16c-12.406 0-22.5 10.093-22.5 22.499v39.248h-7.5c-12.407 0-22.5 10.094-22.5 22.5v15h15v-15c0-4.136 3.364-7.5 7.5-7.5h22.5v-54.248c0-4.135 3.364-7.499 7.5-7.499h47.001v-15h-16.001v-23.251c0-4.136 3.364-7.5 7.5-7.5h32.711c4.135 0 7.499 3.364 7.499 7.5v105.75h-18.711c-4.136 0-7.5-3.364-7.5-7.5v-15h-15v15c0 12.406 10.094 22.5 22.5 22.5h18.711v79.786c-2.347-.833-4.87-1.29-7.499-1.29h-22.5v15h22.5c4.135 0 7.499 3.364 7.499 7.5v30.751c0 4.135-3.364 7.499-7.499 7.499h-32.711c-4.136 0-7.5-3.364-7.5-7.499v-45.751h-15v15h-16c-4.135 0-7.5-3.364-7.5-7.5v-39.248h30v-15h-52.5c-4.136 0-7.5-3.364-7.5-7.499v-15.001h-15v15.001c0 12.406 10.093 22.499 22.5 22.499z"/>
    <path d="m389.511 114.998v15c0 12.406 10.094 22.5 22.5 22.5h22.5v-15h-22.5c-4.136 0-7.5-3.364-7.5-7.5v-15z"/>
    <path d="m389.511 214.246h15v15h-15z"/>
    <path d="m292.09 189.998v-14.999c0-12.406-10.094-22.5-22.5-22.5h-22.5v15h22.5c4.136 0 7.5 3.364 7.5 7.5v14.999z"/>
    <path d="m277.09 75.75h15v15h-15z"/>
    <path d="m217.091 152.499h15v15h-15z"/>
    <path d="m109.752 446.446h15v15h-15z" transform="matrix(.707 -.707 .707 .707 -286.635 215.849)"/>
    <path d="m449.51 137.498h15v15h-15z"/>
  </g>
</svg>
