<svg id="Capa_1" enable-background="new 0 0 512 512" height="512" viewBox="0 0 512 512" width="512" xmlns="http://www.w3.org/2000/svg"><g><path d="m248.5 467.001h15v15h-15z"/><path d="m218.5 30h15v15h-15z"/><path d="m248.5 30h45v15h-45z"/><path d="m466.001 196.756h-67.502v-196.756h-202.498v15h187.498v181.756h-97.499c-12.406 0-22.5 10.093-22.5 22.499v97.501h15v-97.501c0-4.135 3.364-7.499 7.5-7.499h180.001c4.135 0 7.5 3.364 7.5 7.499v135.002c0 4.136-3.364 7.5-7.5 7.5h-99.772l-35.229 23.486v-23.486h-45c-4.135 0-7.5-3.364-7.5-7.5v-22.502h-15v22.502c0 12.406 10.093 22.5 22.5 22.5h30v36.514l54.771-36.514h12.729v60.244h-254.999v-197h12.729l54.771 36.514v-36.514h29.999c12.407 0 22.5-10.094 22.5-22.5v-135.002c0-12.406-10.093-22.5-22.5-22.5h-97.499v-44.999h52.5v-15h-67.5v59.999h-67.502c-12.406 0-22.5 10.094-22.5 22.5v22.501h15v-22.501c0-4.136 3.364-7.5 7.5-7.5h180.001c4.136 0 7.5 3.364 7.5 7.5v135.002c0 4.136-3.364 7.5-7.5 7.5h-44.999v23.486l-35.229-23.486h-99.773c-4.135 0-7.5-3.364-7.5-7.5v-97.501h-15v97.501c0 12.406 10.093 22.5 22.5 22.5h67.502v249.5c0 12.406 10.094 22.499 22.5 22.499h172.499v-15h-172.499c-4.136 0-7.5-3.364-7.5-7.499v-37.5h254.998v37.5c0 4.135-3.364 7.499-7.5 7.499h-52.499v15h52.499c12.407 0 22.5-10.093 22.5-22.499v-112.744h67.502c12.406 0 22.5-10.094 22.5-22.5v-135.002c-.001-12.406-10.094-22.499-22.5-22.499z"/><path d="m158.764 93.749h-45.528l-18.486 27.73v57.043l18.485 27.729h45.528l13.326-19.989 13.396 7.734 7.5-12.99-15.735-9.085v-50.442zm-8.028 97.502h-29.473l-11.513-17.271v-47.96l11.513-17.271h29.473l11.514 17.271v37.241l-13.472-7.778-7.5 12.99 17.795 10.274z"/><path d="m417.25 343.005v-84.771l-18.485-27.729h-45.528l-18.486 27.729v84.771h15v-37.5h52.5v37.5zm-67.5-52.5v-27.729l11.514-17.271h29.473l11.513 17.271v27.729z"/><path d="m353.5 30h15v15h-15z"/><path d="m143.501 467.001h15v15h-15z"/><path d="m443.501 226.755h15v15h-15z"/><path d="m353.5 60h15v15h-15z"/><path d="m53.499 195h15v15h-15z"/></g></svg>