<svg id="Capa_1" enable-background="new 0 0 512 512" height="512" viewBox="0 0 512 512" width="512" xmlns="http://www.w3.org/2000/svg"><g><path d="m512 353.5h-53.501v-142.5c0-12.406-10.093-22.5-22.499-22.5h-15v-164.997h-90v44.998h-75v-29.998h-60v-15.003h-105v165h-15c-12.406 0-22.499 10.094-22.499 22.5v142.5h-53.501v75h60v37.5c0 12.406 10.094 22.5 22.5 22.5h30.001c10.223 0 17.662-6.772 22.114-20.128l13.291-39.872h100.594v-15h-233.5v-45h482v45h-233.5v15h100.595l13.29 39.872c4.453 13.355 11.894 20.128 22.115 20.128h30.001c12.406 0 22.5-10.094 22.5-22.5v-37.5h59.999zm-391.615 110.129c-3.29 9.871-6.509 9.871-7.884 9.871h-30.001c-4.136 0-7.5-3.364-7.5-7.5v-37.5h57.094zm315.615-260.129c4.135 0 7.499 3.364 7.499 7.5v142.5h-22.499v-150zm-30-164.997v314.997h-60v-59.999h29.999v-194.999h-29.999v-59.999zm-60 74.999h14.999v164.999h-14.999zm-15-30.001v269.999h-75v-269.999zm-90-29.998v299.997h-45v-299.997zm-60-15.003v315h-75v-315zm-112.499 172.5c0-4.136 3.364-7.5 7.499-7.5h15v150h-22.499zm368.5 255c0 4.136-3.364 7.5-7.5 7.5h-30.001c-1.375 0-4.594 0-7.885-9.871l-11.709-35.129h57.095z"/><path d="m293.5 263.501c-12.406 0-22.5 10.094-22.5 22.5s10.094 22.5 22.5 22.5 22.5-10.094 22.5-22.5-10.094-22.5-22.5-22.5zm0 30c-4.136 0-7.5-3.364-7.5-7.5s3.364-7.5 7.5-7.5 7.5 3.364 7.5 7.5-3.364 7.5-7.5 7.5z"/><path d="m143.5 308.501c12.406 0 22.5-10.094 22.5-22.5s-10.094-22.5-22.5-22.5-22.499 10.094-22.499 22.5 10.093 22.5 22.499 22.5zm0-30c4.136 0 7.5 3.364 7.5 7.5s-3.364 7.5-7.5 7.5c-4.135 0-7.499-3.364-7.499-7.5s3.364-7.5 7.499-7.5z"/><path d="m166 83.499h-44.999v104.999h44.999zm-15 89.999h-14.999v-74.999h14.999z"/><path d="m211 68.503h15v269.998h-15z"/><path d="m270.999 203.502h45v15h-45z"/><path d="m270.999 233.502h45v15h-45z"/><path d="m270.999 173.502h45v15h-45z"/><path d="m301 98.5h15v15.001h-15z"/><path d="m30 383.5h15v15h-15z"/></g></svg>